<svg width="28" height="32" viewBox="0 0 28 32" fill="none" xmlns="http://www.w3.org/2000/svg">
<path d="M10 22.0156C15.5228 22.0156 20 17.5268 20 11.9896C20 11.362 19.9425 10.7479 19.8325 10.1523C19.2384 10.042 18.6259 9.98438 18 9.98438C12.4771 9.98438 8 14.4732 8 20.0104C8 20.638 8.05751 21.2521 8.16752 21.8477C8.76159 21.958 9.37408 22.0156 10 22.0156Z" fill="#E94248"/>
<path fill-rule="evenodd" clip-rule="evenodd" d="M8.16753 21.8477C3.51984 20.9847 0 16.8993 0 11.9896C0 6.45236 4.47715 1.96355 10 1.96355C14.8969 1.96355 18.9718 5.49255 19.8325 10.1523C19.2384 10.042 18.6259 9.98438 18 9.98438C12.4772 9.98438 8 14.4732 8 20.0104C8 20.638 8.05751 21.2521 8.16753 21.8477Z" fill="#E41B23"/>
<path fill-rule="evenodd" clip-rule="evenodd" d="M9.99996 22.0156C15.5228 22.0156 20 17.5268 20 11.9895C20 11.362 19.9424 10.7479 19.8324 10.1523C24.4801 11.0153 28 15.1007 28 20.0104C28 25.5476 23.5228 30.0364 18 30.0364C13.103 30.0364 9.02821 26.5074 8.16748 21.8476C8.76154 21.9579 9.37403 22.0156 9.99996 22.0156Z" fill="#EF7B7F"/>
</svg>
