<svg width="545" height="56" viewBox="0 0 545 56" fill="none" xmlns="http://www.w3.org/2000/svg">
<rect width="56" height="56" rx="11" fill="#EFEFEF"/>
<path d="M37.4701 27.185L36.4401 25.755C36.2095 25.4312 35.9051 25.1671 35.5521 24.9844C35.199 24.8018 34.8075 24.706 34.4101 24.705H30.0301V22.565C30.0301 21.902 29.7667 21.2661 29.2978 20.7972C28.829 20.3284 28.1931 20.065 27.5301 20.065H20.5601C19.8976 20.0668 19.2628 20.3308 18.7943 20.7993C18.3259 21.2677 18.0619 21.9025 18.0601 22.565V32.505C18.0601 32.9028 18.2181 33.2844 18.4994 33.5657C18.7807 33.847 19.1622 34.005 19.5601 34.005H20.7801C20.8556 34.54 21.1218 35.0298 21.5297 35.3842C21.9376 35.7385 22.4597 35.9337 23.0001 35.9337C23.5404 35.9337 24.0626 35.7385 24.4705 35.3842C24.8784 35.0298 25.1445 34.54 25.2201 34.005H30.7801C30.8556 34.54 31.1218 35.0298 31.5297 35.3842C31.9376 35.7385 32.4597 35.9337 33.0001 35.9337C33.5404 35.9337 34.0626 35.7385 34.4705 35.3842C34.8784 35.0298 35.1445 34.54 35.2201 34.005H36.4401C36.8379 34.005 37.2194 33.847 37.5007 33.5657C37.782 33.2844 37.9401 32.9028 37.9401 32.505V28.635C37.9376 28.1146 37.7734 27.6079 37.4701 27.185ZM23.0001 34.935C22.7528 34.935 22.5112 34.8617 22.3056 34.7243C22.1 34.587 21.9398 34.3918 21.8452 34.1634C21.7506 33.9349 21.7258 33.6836 21.7741 33.4411C21.8223 33.1987 21.9414 32.9759 22.1162 32.8011C22.291 32.6263 22.5137 32.5072 22.7562 32.459C22.9987 32.4108 23.25 32.4355 23.4784 32.5301C23.7068 32.6248 23.902 32.785 24.0394 32.9905C24.1767 33.1961 24.2501 33.4378 24.2501 33.685C24.2501 34.0165 24.1184 34.3345 23.8839 34.5689C23.6495 34.8033 23.3316 34.935 23.0001 34.935ZM29.0301 33.005H25.1501C25.0045 32.5491 24.7177 32.1513 24.3313 31.8691C23.9448 31.5868 23.4786 31.4347 23.0001 31.4347C22.5215 31.4347 22.0553 31.5868 21.6689 31.8691C21.2824 32.1513 20.9957 32.5491 20.8501 33.005H19.5601C19.4275 33.005 19.3003 32.9523 19.2065 32.8586C19.1127 32.7648 19.0601 32.6376 19.0601 32.505V22.565C19.0601 22.1672 19.2181 21.7856 19.4994 21.5043C19.7807 21.223 20.1622 21.065 20.5601 21.065H27.5301C27.9279 21.065 28.3094 21.223 28.5907 21.5043C28.872 21.7856 29.0301 22.1672 29.0301 22.565V33.005ZM33.0001 34.935C32.7528 34.935 32.5112 34.8617 32.3056 34.7243C32.1 34.587 31.9398 34.3918 31.8452 34.1634C31.7506 33.9349 31.7258 33.6836 31.7741 33.4411C31.8223 33.1987 31.9414 32.9759 32.1162 32.8011C32.291 32.6263 32.5137 32.5072 32.7562 32.459C32.9987 32.4108 33.25 32.4355 33.4784 32.5301C33.7068 32.6248 33.902 32.785 34.0394 32.9905C34.1767 33.1961 34.2501 33.4378 34.2501 33.685C34.2501 34.0165 34.1184 34.3345 33.8839 34.5689C33.6495 34.8033 33.3316 34.935 33.0001 34.935ZM36.9401 32.505C36.9401 32.6376 36.8874 32.7648 36.7936 32.8586C36.6998 32.9523 36.5727 33.005 36.4401 33.005H35.1501C35.0045 32.5491 34.7177 32.1513 34.3313 31.8691C33.9448 31.5868 33.4786 31.4347 33.0001 31.4347C32.5215 31.4347 32.0553 31.5868 31.6689 31.8691C31.2824 32.1513 30.9957 32.5491 30.8501 33.005H30.0301V25.705H34.4101C34.6486 25.7066 34.8835 25.7645 35.0955 25.874C35.3075 25.9834 35.4906 26.1414 35.6301 26.335L36.6601 27.765C36.84 28.0196 36.9377 28.3232 36.9401 28.635V32.505Z" fill="#34707E"/>
<path d="M34.0293 28.205H32.0293C31.8967 28.205 31.7695 28.1523 31.6757 28.0586C31.582 27.9648 31.5293 27.8376 31.5293 27.705C31.5293 27.5724 31.582 27.4452 31.6757 27.3514C31.7695 27.2577 31.8967 27.205 32.0293 27.205H34.0293C34.1619 27.205 34.2891 27.2577 34.3828 27.3514C34.4766 27.4452 34.5293 27.5724 34.5293 27.705C34.5293 27.8376 34.4766 27.9648 34.3828 28.0586C34.2891 28.1523 34.1619 28.205 34.0293 28.205Z" fill="#34707E"/>
<path d="M74.7275 11.0469V21H73.0117V11.0469H74.7275ZM78.7881 15.4014V16.7617H74.29V15.4014H78.7881ZM79.3555 11.0469V12.4141H74.29V11.0469H79.3555ZM82.0352 15.0117V21H80.3877V13.6035H81.96L82.0352 15.0117ZM84.2979 13.5557L84.2842 15.0869C84.1839 15.0687 84.0745 15.055 83.9561 15.0459C83.8421 15.0368 83.7282 15.0322 83.6143 15.0322C83.3317 15.0322 83.0833 15.0732 82.8691 15.1553C82.6549 15.2327 82.4749 15.3467 82.3291 15.4971C82.1878 15.6429 82.0785 15.8206 82.001 16.0303C81.9235 16.2399 81.8779 16.4746 81.8643 16.7344L81.4883 16.7617C81.4883 16.2969 81.5339 15.8662 81.625 15.4697C81.7161 15.0732 81.8529 14.7246 82.0352 14.4238C82.222 14.123 82.4544 13.8883 82.7324 13.7197C83.015 13.5511 83.3408 13.4668 83.71 13.4668C83.8102 13.4668 83.9173 13.4759 84.0312 13.4941C84.1497 13.5124 84.2386 13.5329 84.2979 13.5557ZM88.4541 21.1367C87.9072 21.1367 87.4128 21.0479 86.9707 20.8701C86.5332 20.6878 86.1595 20.4349 85.8496 20.1113C85.5443 19.7878 85.3096 19.4072 85.1455 18.9697C84.9814 18.5322 84.8994 18.0605 84.8994 17.5547V17.2812C84.8994 16.7025 84.9837 16.1784 85.1523 15.709C85.321 15.2396 85.5557 14.8385 85.8564 14.5059C86.1572 14.1686 86.5127 13.9111 86.9229 13.7334C87.333 13.5557 87.7773 13.4668 88.2559 13.4668C88.7845 13.4668 89.2471 13.5557 89.6436 13.7334C90.04 13.9111 90.3682 14.1618 90.6279 14.4854C90.8923 14.8044 91.0882 15.1849 91.2158 15.627C91.348 16.069 91.4141 16.5566 91.4141 17.0898V17.7939H85.6992V16.6113H89.7871V16.4814C89.778 16.1852 89.7188 15.9072 89.6094 15.6475C89.5046 15.3877 89.3428 15.1781 89.124 15.0186C88.9053 14.859 88.6136 14.7793 88.249 14.7793C87.9756 14.7793 87.7318 14.8385 87.5176 14.957C87.3079 15.071 87.1325 15.2373 86.9912 15.4561C86.8499 15.6748 86.7406 15.9391 86.6631 16.249C86.5902 16.5544 86.5537 16.8984 86.5537 17.2812V17.5547C86.5537 17.8783 86.597 18.179 86.6836 18.457C86.7747 18.7305 86.9069 18.9697 87.0801 19.1748C87.2533 19.3799 87.4629 19.5417 87.709 19.6602C87.9551 19.7741 88.2354 19.8311 88.5498 19.8311C88.9463 19.8311 89.2995 19.7513 89.6094 19.5918C89.9193 19.4323 90.1882 19.2067 90.416 18.915L91.2842 19.7559C91.1247 19.9883 90.9173 20.2116 90.6621 20.4258C90.4069 20.6354 90.0947 20.8063 89.7256 20.9385C89.361 21.0706 88.9372 21.1367 88.4541 21.1367ZM95.96 21.1367C95.4131 21.1367 94.9186 21.0479 94.4766 20.8701C94.0391 20.6878 93.6654 20.4349 93.3555 20.1113C93.0501 19.7878 92.8154 19.4072 92.6514 18.9697C92.4873 18.5322 92.4053 18.0605 92.4053 17.5547V17.2812C92.4053 16.7025 92.4896 16.1784 92.6582 15.709C92.8268 15.2396 93.0615 14.8385 93.3623 14.5059C93.6631 14.1686 94.0186 13.9111 94.4287 13.7334C94.8389 13.5557 95.2832 13.4668 95.7617 13.4668C96.2904 13.4668 96.7529 13.5557 97.1494 13.7334C97.5459 13.9111 97.874 14.1618 98.1338 14.4854C98.3981 14.8044 98.5941 15.1849 98.7217 15.627C98.8538 16.069 98.9199 16.5566 98.9199 17.0898V17.7939H93.2051V16.6113H97.293V16.4814C97.2839 16.1852 97.2246 15.9072 97.1152 15.6475C97.0104 15.3877 96.8486 15.1781 96.6299 15.0186C96.4111 14.859 96.1195 14.7793 95.7549 14.7793C95.4814 14.7793 95.2376 14.8385 95.0234 14.957C94.8138 15.071 94.6383 15.2373 94.4971 15.4561C94.3558 15.6748 94.2464 15.9391 94.1689 16.249C94.096 16.5544 94.0596 16.8984 94.0596 17.2812V17.5547C94.0596 17.8783 94.1029 18.179 94.1895 18.457C94.2806 18.7305 94.4128 18.9697 94.5859 19.1748C94.7591 19.3799 94.9688 19.5417 95.2148 19.6602C95.4609 19.7741 95.7412 19.8311 96.0557 19.8311C96.4521 19.8311 96.8053 19.7513 97.1152 19.5918C97.4251 19.4323 97.694 19.2067 97.9219 18.915L98.79 19.7559C98.6305 19.9883 98.4232 20.2116 98.168 20.4258C97.9128 20.6354 97.6006 20.8063 97.2314 20.9385C96.8669 21.0706 96.443 21.1367 95.96 21.1367ZM106.747 21H104.621L104.635 19.6396H106.747C107.362 19.6396 107.877 19.5052 108.292 19.2363C108.711 18.9674 109.026 18.5824 109.235 18.0811C109.45 17.5798 109.557 16.9827 109.557 16.29V15.75C109.557 15.2122 109.495 14.736 109.372 14.3213C109.254 13.9066 109.076 13.5579 108.839 13.2754C108.606 12.9928 108.319 12.7786 107.978 12.6328C107.64 12.487 107.251 12.4141 106.809 12.4141H104.58V11.0469H106.809C107.469 11.0469 108.073 11.1585 108.62 11.3818C109.167 11.6006 109.639 11.9173 110.035 12.332C110.436 12.7467 110.744 13.2435 110.958 13.8223C111.172 14.401 111.279 15.0482 111.279 15.7637V16.29C111.279 17.0055 111.172 17.6527 110.958 18.2314C110.744 18.8102 110.436 19.307 110.035 19.7217C109.634 20.1318 109.156 20.4486 108.6 20.6719C108.048 20.8906 107.431 21 106.747 21ZM105.571 11.0469V21H103.855V11.0469H105.571ZM116.099 21.1367C115.552 21.1367 115.057 21.0479 114.615 20.8701C114.178 20.6878 113.804 20.4349 113.494 20.1113C113.189 19.7878 112.954 19.4072 112.79 18.9697C112.626 18.5322 112.544 18.0605 112.544 17.5547V17.2812C112.544 16.7025 112.628 16.1784 112.797 15.709C112.965 15.2396 113.2 14.8385 113.501 14.5059C113.802 14.1686 114.157 13.9111 114.567 13.7334C114.978 13.5557 115.422 13.4668 115.9 13.4668C116.429 13.4668 116.892 13.5557 117.288 13.7334C117.685 13.9111 118.013 14.1618 118.272 14.4854C118.537 14.8044 118.733 15.1849 118.86 15.627C118.993 16.069 119.059 16.5566 119.059 17.0898V17.7939H113.344V16.6113H117.432V16.4814C117.423 16.1852 117.363 15.9072 117.254 15.6475C117.149 15.3877 116.987 15.1781 116.769 15.0186C116.55 14.859 116.258 14.7793 115.894 14.7793C115.62 14.7793 115.376 14.8385 115.162 14.957C114.952 15.071 114.777 15.2373 114.636 15.4561C114.494 15.6748 114.385 15.9391 114.308 16.249C114.235 16.5544 114.198 16.8984 114.198 17.2812V17.5547C114.198 17.8783 114.242 18.179 114.328 18.457C114.419 18.7305 114.551 18.9697 114.725 19.1748C114.898 19.3799 115.107 19.5417 115.354 19.6602C115.6 19.7741 115.88 19.8311 116.194 19.8311C116.591 19.8311 116.944 19.7513 117.254 19.5918C117.564 19.4323 117.833 19.2067 118.061 18.915L118.929 19.7559C118.769 19.9883 118.562 20.2116 118.307 20.4258C118.051 20.6354 117.739 20.8063 117.37 20.9385C117.006 21.0706 116.582 21.1367 116.099 21.1367ZM122.107 10.5V21H120.453V10.5H122.107ZM125.676 13.6035V21H124.021V13.6035H125.676ZM123.912 11.6621C123.912 11.4115 123.994 11.2041 124.158 11.04C124.327 10.8714 124.559 10.7871 124.855 10.7871C125.147 10.7871 125.377 10.8714 125.546 11.04C125.715 11.2041 125.799 11.4115 125.799 11.6621C125.799 11.9082 125.715 12.1133 125.546 12.2773C125.377 12.4414 125.147 12.5234 124.855 12.5234C124.559 12.5234 124.327 12.4414 124.158 12.2773C123.994 12.1133 123.912 11.9082 123.912 11.6621ZM129.887 19.6943L131.698 13.6035H133.407L130.837 21H129.771L129.887 19.6943ZM128.499 13.6035L130.345 19.7217L130.434 21H129.367L126.783 13.6035H128.499ZM137.591 21.1367C137.044 21.1367 136.549 21.0479 136.107 20.8701C135.67 20.6878 135.296 20.4349 134.986 20.1113C134.681 19.7878 134.446 19.4072 134.282 18.9697C134.118 18.5322 134.036 18.0605 134.036 17.5547V17.2812C134.036 16.7025 134.12 16.1784 134.289 15.709C134.458 15.2396 134.692 14.8385 134.993 14.5059C135.294 14.1686 135.649 13.9111 136.06 13.7334C136.47 13.5557 136.914 13.4668 137.393 13.4668C137.921 13.4668 138.384 13.5557 138.78 13.7334C139.177 13.9111 139.505 14.1618 139.765 14.4854C140.029 14.8044 140.225 15.1849 140.353 15.627C140.485 16.069 140.551 16.5566 140.551 17.0898V17.7939H134.836V16.6113H138.924V16.4814C138.915 16.1852 138.855 15.9072 138.746 15.6475C138.641 15.3877 138.479 15.1781 138.261 15.0186C138.042 14.859 137.75 14.7793 137.386 14.7793C137.112 14.7793 136.868 14.8385 136.654 14.957C136.445 15.071 136.269 15.2373 136.128 15.4561C135.987 15.6748 135.877 15.9391 135.8 16.249C135.727 16.5544 135.69 16.8984 135.69 17.2812V17.5547C135.69 17.8783 135.734 18.179 135.82 18.457C135.911 18.7305 136.044 18.9697 136.217 19.1748C136.39 19.3799 136.6 19.5417 136.846 19.6602C137.092 19.7741 137.372 19.8311 137.687 19.8311C138.083 19.8311 138.436 19.7513 138.746 19.5918C139.056 19.4323 139.325 19.2067 139.553 18.915L140.421 19.7559C140.261 19.9883 140.054 20.2116 139.799 20.4258C139.544 20.6354 139.231 20.8063 138.862 20.9385C138.498 21.0706 138.074 21.1367 137.591 21.1367ZM143.49 15.0117V21H141.843V13.6035H143.415L143.49 15.0117ZM145.753 13.5557L145.739 15.0869C145.639 15.0687 145.53 15.055 145.411 15.0459C145.297 15.0368 145.183 15.0322 145.069 15.0322C144.787 15.0322 144.538 15.0732 144.324 15.1553C144.11 15.2327 143.93 15.3467 143.784 15.4971C143.643 15.6429 143.534 15.8206 143.456 16.0303C143.379 16.2399 143.333 16.4746 143.319 16.7344L142.943 16.7617C142.943 16.2969 142.989 15.8662 143.08 15.4697C143.171 15.0732 143.308 14.7246 143.49 14.4238C143.677 14.123 143.91 13.8883 144.188 13.7197C144.47 13.5511 144.796 13.4668 145.165 13.4668C145.265 13.4668 145.372 13.4759 145.486 13.4941C145.605 13.5124 145.694 13.5329 145.753 13.5557ZM149.055 20.1934L151.064 13.6035H152.828L149.861 22.1279C149.793 22.3102 149.704 22.5085 149.595 22.7227C149.485 22.9368 149.342 23.1396 149.164 23.3311C148.991 23.527 148.774 23.6842 148.515 23.8027C148.255 23.9258 147.94 23.9873 147.571 23.9873C147.425 23.9873 147.284 23.9736 147.147 23.9463C147.015 23.9235 146.89 23.8984 146.771 23.8711L146.765 22.6133C146.81 22.6178 146.865 22.6224 146.929 22.627C146.997 22.6315 147.052 22.6338 147.093 22.6338C147.366 22.6338 147.594 22.5996 147.776 22.5312C147.959 22.4674 148.107 22.3626 148.221 22.2168C148.339 22.071 148.439 21.875 148.521 21.6289L149.055 20.1934ZM147.92 13.6035L149.677 19.1406L149.971 20.877L148.829 21.1709L146.143 13.6035H147.92Z" fill="#717171"/>
<path d="M74.4814 40.3721L73.1689 40.0508L73.709 35.0469H79.0752V36.4414H75.0762L74.8027 38.8818C74.9577 38.7907 75.1719 38.7018 75.4453 38.6152C75.7188 38.5241 76.0309 38.4785 76.3818 38.4785C76.8512 38.4785 77.2705 38.556 77.6396 38.7109C78.0133 38.8613 78.3301 39.0824 78.5898 39.374C78.8496 39.6611 79.0479 40.012 79.1846 40.4268C79.3213 40.8369 79.3896 41.2995 79.3896 41.8145C79.3896 42.2747 79.3213 42.7054 79.1846 43.1064C79.0524 43.5075 78.8519 43.8607 78.583 44.166C78.3141 44.4714 77.9746 44.7106 77.5645 44.8838C77.1589 45.0524 76.6781 45.1367 76.1221 45.1367C75.7074 45.1367 75.3086 45.0775 74.9258 44.959C74.5475 44.8359 74.208 44.6559 73.9072 44.4189C73.6064 44.1774 73.3649 43.8812 73.1826 43.5303C73.0003 43.1748 72.8955 42.7669 72.8682 42.3066H74.4814C74.5225 42.6302 74.6113 42.9059 74.748 43.1338C74.8893 43.3571 75.0762 43.528 75.3086 43.6465C75.541 43.765 75.8099 43.8242 76.1152 43.8242C76.3932 43.8242 76.6325 43.7764 76.833 43.6807C77.0335 43.5804 77.1999 43.4391 77.332 43.2568C77.4688 43.07 77.569 42.8512 77.6328 42.6006C77.7012 42.3499 77.7354 42.0719 77.7354 41.7666C77.7354 41.4749 77.6966 41.2083 77.6191 40.9668C77.5462 40.7253 77.4346 40.5156 77.2842 40.3379C77.1383 40.1602 76.9538 40.0234 76.7305 39.9277C76.5072 39.8275 76.2497 39.7773 75.958 39.7773C75.5661 39.7773 75.2653 39.8343 75.0557 39.9482C74.8506 40.0622 74.6592 40.2035 74.4814 40.3721ZM84.1201 40.0918V41.4043H80.5039V40.0918H84.1201ZM90.4434 34.9854H90.6484V36.332H90.5322C89.9443 36.332 89.4362 36.4232 89.0078 36.6055C88.584 36.7878 88.2354 37.0384 87.9619 37.3574C87.6885 37.6764 87.4834 38.0501 87.3467 38.4785C87.2145 38.9023 87.1484 39.3535 87.1484 39.832V41.3975C87.1484 41.7939 87.1917 42.1449 87.2783 42.4502C87.3649 42.751 87.4857 43.0039 87.6406 43.209C87.8001 43.4095 87.9824 43.5622 88.1875 43.667C88.3926 43.7718 88.6136 43.8242 88.8506 43.8242C89.0967 43.8242 89.32 43.7741 89.5205 43.6738C89.721 43.569 89.8919 43.4255 90.0332 43.2432C90.1745 43.0609 90.2816 42.8444 90.3545 42.5938C90.4274 42.3431 90.4639 42.0697 90.4639 41.7734C90.4639 41.4909 90.4274 41.2266 90.3545 40.9805C90.2861 40.7298 90.1836 40.5111 90.0469 40.3242C89.9102 40.1328 89.7393 39.9847 89.5342 39.8799C89.3337 39.7705 89.1012 39.7158 88.8369 39.7158C88.5088 39.7158 88.2103 39.7933 87.9414 39.9482C87.6771 40.1032 87.4629 40.306 87.2988 40.5566C87.1393 40.8027 87.0527 41.0648 87.0391 41.3428L86.4102 41.1377C86.4466 40.7139 86.54 40.3333 86.6904 39.9961C86.8454 39.6589 87.0482 39.3717 87.2988 39.1348C87.5495 38.8978 87.8389 38.7178 88.167 38.5947C88.4997 38.4671 88.8643 38.4033 89.2607 38.4033C89.7438 38.4033 90.1631 38.4945 90.5186 38.6768C90.874 38.859 91.168 39.1074 91.4004 39.4219C91.6374 39.7318 91.8128 40.0872 91.9268 40.4883C92.0452 40.8848 92.1045 41.2995 92.1045 41.7324C92.1045 42.2109 92.0316 42.6576 91.8857 43.0723C91.7399 43.4824 91.5257 43.8424 91.2432 44.1523C90.9652 44.4622 90.6257 44.7038 90.2246 44.877C89.8281 45.0501 89.377 45.1367 88.8711 45.1367C88.3379 45.1367 87.8617 45.0342 87.4424 44.8291C87.0277 44.624 86.6745 44.3415 86.3828 43.9814C86.0957 43.6214 85.877 43.2067 85.7266 42.7373C85.5762 42.2679 85.501 41.7712 85.501 41.2471V40.5635C85.501 39.807 85.5967 39.0938 85.7881 38.4238C85.9795 37.7493 86.2734 37.1546 86.6699 36.6396C87.071 36.1247 87.5837 35.7214 88.208 35.4297C88.8324 35.1335 89.5775 34.9854 90.4434 34.9854ZM101.518 43.4688V34.5H103.172V45H101.675L101.518 43.4688ZM96.7051 41.3838V41.2402C96.7051 40.6797 96.7712 40.1693 96.9033 39.709C97.0355 39.2441 97.2269 38.8454 97.4775 38.5127C97.7282 38.1755 98.0335 37.918 98.3936 37.7402C98.7536 37.5579 99.1592 37.4668 99.6104 37.4668C100.057 37.4668 100.449 37.5534 100.786 37.7266C101.123 37.8997 101.41 38.1481 101.647 38.4717C101.884 38.7907 102.074 39.1735 102.215 39.6201C102.356 40.0622 102.456 40.5544 102.516 41.0967V41.5547C102.456 42.0833 102.356 42.5664 102.215 43.0039C102.074 43.4414 101.884 43.8197 101.647 44.1387C101.41 44.4577 101.121 44.7038 100.779 44.877C100.442 45.0501 100.048 45.1367 99.5967 45.1367C99.1501 45.1367 98.7467 45.0433 98.3867 44.8564C98.0312 44.6696 97.7282 44.4076 97.4775 44.0703C97.2269 43.7331 97.0355 43.3366 96.9033 42.8809C96.7712 42.4206 96.7051 41.9215 96.7051 41.3838ZM98.3525 41.2402V41.3838C98.3525 41.721 98.3822 42.0355 98.4414 42.3271C98.5052 42.6188 98.6032 42.8763 98.7354 43.0996C98.8675 43.3184 99.0384 43.4915 99.248 43.6191C99.4622 43.7422 99.7174 43.8037 100.014 43.8037C100.387 43.8037 100.695 43.7217 100.937 43.5576C101.178 43.3936 101.367 43.1725 101.504 42.8945C101.645 42.612 101.741 42.2975 101.791 41.9512V40.7139C101.764 40.445 101.707 40.1943 101.62 39.9619C101.538 39.7295 101.426 39.5267 101.285 39.3535C101.144 39.1758 100.968 39.0391 100.759 38.9434C100.554 38.8431 100.31 38.793 100.027 38.793C99.7266 38.793 99.4714 38.8568 99.2617 38.9844C99.0521 39.112 98.8789 39.2874 98.7422 39.5107C98.61 39.734 98.512 39.9938 98.4482 40.29C98.3844 40.5863 98.3525 40.903 98.3525 41.2402ZM109.064 43.5166V39.9893C109.064 39.7249 109.017 39.4971 108.921 39.3057C108.825 39.1143 108.679 38.9661 108.483 38.8613C108.292 38.7565 108.05 38.7041 107.759 38.7041C107.49 38.7041 107.257 38.7497 107.062 38.8408C106.866 38.932 106.713 39.055 106.604 39.21C106.494 39.3649 106.439 39.5404 106.439 39.7363H104.799C104.799 39.4447 104.869 39.1621 105.011 38.8887C105.152 38.6152 105.357 38.3714 105.626 38.1572C105.895 37.943 106.216 37.7744 106.59 37.6514C106.964 37.5283 107.383 37.4668 107.848 37.4668C108.404 37.4668 108.896 37.5602 109.324 37.7471C109.757 37.9339 110.097 38.2165 110.343 38.5947C110.593 38.9684 110.719 39.4378 110.719 40.0029V43.291C110.719 43.6283 110.742 43.9313 110.787 44.2002C110.837 44.4645 110.908 44.6947 110.999 44.8906V45H109.311C109.233 44.8223 109.172 44.5967 109.126 44.3232C109.085 44.0452 109.064 43.7764 109.064 43.5166ZM109.304 40.502L109.317 41.5205H108.135C107.829 41.5205 107.561 41.5501 107.328 41.6094C107.096 41.6641 106.902 41.7461 106.747 41.8555C106.592 41.9648 106.476 42.097 106.398 42.252C106.321 42.4069 106.282 42.5824 106.282 42.7783C106.282 42.9743 106.328 43.1543 106.419 43.3184C106.51 43.4779 106.642 43.6032 106.815 43.6943C106.993 43.7855 107.207 43.8311 107.458 43.8311C107.795 43.8311 108.089 43.7627 108.34 43.626C108.595 43.4847 108.796 43.3138 108.941 43.1133C109.087 42.9082 109.165 42.7145 109.174 42.5322L109.707 43.2637C109.652 43.4505 109.559 43.651 109.427 43.8652C109.295 44.0794 109.121 44.2845 108.907 44.4805C108.698 44.6719 108.445 44.8291 108.148 44.9521C107.857 45.0752 107.52 45.1367 107.137 45.1367C106.654 45.1367 106.223 45.041 105.845 44.8496C105.466 44.6536 105.17 44.3916 104.956 44.0635C104.742 43.7308 104.635 43.3548 104.635 42.9355C104.635 42.5436 104.708 42.1973 104.854 41.8965C105.004 41.5911 105.223 41.3359 105.51 41.1309C105.801 40.9258 106.157 40.7708 106.576 40.666C106.995 40.5566 107.474 40.502 108.012 40.502H109.304ZM114.479 44.1934L116.488 37.6035H118.252L115.285 46.1279C115.217 46.3102 115.128 46.5085 115.019 46.7227C114.909 46.9368 114.766 47.1396 114.588 47.3311C114.415 47.527 114.198 47.6842 113.938 47.8027C113.679 47.9258 113.364 47.9873 112.995 47.9873C112.849 47.9873 112.708 47.9736 112.571 47.9463C112.439 47.9235 112.314 47.8984 112.195 47.8711L112.188 46.6133C112.234 46.6178 112.289 46.6224 112.353 46.627C112.421 46.6315 112.476 46.6338 112.517 46.6338C112.79 46.6338 113.018 46.5996 113.2 46.5312C113.382 46.4674 113.531 46.3626 113.645 46.2168C113.763 46.071 113.863 45.875 113.945 45.6289L114.479 44.1934ZM113.344 37.6035L115.101 43.1406L115.395 44.877L114.253 45.1709L111.566 37.6035H113.344Z" fill="black"/>
<rect x="192.333" width="56" height="56" rx="11" fill="#EFEFEF"/>
<path fill-rule="evenodd" clip-rule="evenodd" d="M215.769 17.25H224.898C225.468 17.25 225.952 17.25 226.352 17.2913C226.778 17.3353 227.171 17.4309 227.543 17.6607C227.915 17.8905 228.176 18.1997 228.406 18.5609C228.622 18.9001 228.838 19.333 229.093 19.8428L229.11 19.8757C229.119 19.8952 229.128 19.915 229.136 19.9353L230.54 23.4834C230.707 23.9056 230.892 24.4323 230.946 24.9713C231.002 25.5226 230.926 26.1541 230.494 26.7019C230.14 27.15 229.649 27.4863 229.083 27.6463V37.25H230.333C230.748 37.25 231.083 37.5858 231.083 38C231.083 38.4142 230.748 38.75 230.333 38.75H210.333C209.919 38.75 209.583 38.4142 209.583 38C209.583 37.5858 209.919 37.25 210.333 37.25H211.583V27.6464C211.018 27.4863 210.527 27.15 210.173 26.7019C209.741 26.1541 209.665 25.5226 209.721 24.9713C209.775 24.4323 209.96 23.9056 210.127 23.4834L211.531 19.9353C211.539 19.915 211.547 19.8952 211.557 19.8757L211.574 19.8428C211.828 19.333 212.045 18.9001 212.261 18.5609C212.491 18.1997 212.752 17.8905 213.124 17.6607C213.496 17.4309 213.889 17.3353 214.315 17.2913C214.715 17.25 215.199 17.25 215.769 17.25ZM226.333 26.8875C226.669 27.2433 227.099 27.5096 227.583 27.6465V37.25H223.583V34.4678C223.583 34.028 223.583 33.6486 223.555 33.3374C223.525 33.0082 223.459 32.6822 223.282 32.375C223.085 32.033 222.8 31.7489 222.458 31.5514C222.151 31.3741 221.825 31.308 221.496 31.2782C221.185 31.25 220.805 31.25 220.366 31.25H220.301C219.861 31.25 219.482 31.25 219.171 31.2782C218.842 31.308 218.516 31.3741 218.208 31.5514C217.866 31.7489 217.582 32.033 217.385 32.375C217.208 32.6822 217.142 33.0082 217.112 33.3374C217.083 33.6486 217.083 34.028 217.083 34.4677V37.25H213.083V27.6465C213.568 27.5095 213.997 27.2433 214.333 26.8875C214.835 27.4186 215.545 27.75 216.333 27.75C217.121 27.75 217.832 27.4186 218.333 26.8875C218.835 27.4186 219.545 27.75 220.333 27.75C221.121 27.75 221.832 27.4186 222.333 26.8875C222.835 27.4186 223.545 27.75 224.333 27.75C225.121 27.75 225.832 27.4186 226.333 26.8875ZM218.583 37.25H222.083V34.5C222.083 34.0189 222.083 33.7082 222.061 33.4727C222.041 33.2476 222.007 33.1659 221.983 33.125C221.917 33.011 221.822 32.9163 221.708 32.8505C221.668 32.8269 221.586 32.7925 221.361 32.7721C221.125 32.7507 220.815 32.75 220.333 32.75C219.852 32.75 219.542 32.7507 219.306 32.7721C219.081 32.7925 218.999 32.8269 218.958 32.8505C218.844 32.9163 218.75 33.011 218.684 33.125C218.66 33.1659 218.626 33.2476 218.606 33.4727C218.584 33.7082 218.583 34.0189 218.583 34.5V37.25ZM215.083 25C215.083 25.6904 215.643 26.25 216.333 26.25C217.024 26.25 217.583 25.6904 217.583 25C217.583 24.5858 217.919 24.25 218.333 24.25C218.748 24.25 219.083 24.5858 219.083 25C219.083 25.6904 219.643 26.25 220.333 26.25C221.024 26.25 221.583 25.6904 221.583 25C221.583 24.5858 221.919 24.25 222.333 24.25C222.748 24.25 223.083 24.5858 223.083 25C223.083 25.6904 223.643 26.25 224.333 26.25C225.024 26.25 225.583 25.6904 225.583 25C225.583 24.5858 225.919 24.25 226.333 24.25C226.748 24.25 227.083 24.5858 227.083 25C227.083 25.6904 227.643 26.25 228.333 26.25C228.731 26.25 229.086 26.0649 229.316 25.7731C229.43 25.6286 229.485 25.4309 229.454 25.1211C229.421 24.799 229.302 24.4328 229.145 24.0352L227.754 20.5174C227.486 19.982 227.307 19.6275 227.141 19.3661C226.981 19.1147 226.866 19.0056 226.754 18.9367C226.643 18.8678 226.494 18.814 226.198 18.7834C225.884 18.7509 225.478 18.75 224.861 18.75H215.806C215.189 18.75 214.783 18.7509 214.469 18.7834C214.173 18.814 214.024 18.8678 213.912 18.9367C213.801 19.0056 213.686 19.1147 213.526 19.3661C213.36 19.6275 213.181 19.982 212.913 20.5174L211.522 24.0352C211.364 24.4328 211.246 24.799 211.213 25.1212C211.182 25.431 211.237 25.6286 211.351 25.7731C211.581 26.0649 211.935 26.25 212.333 26.25C213.024 26.25 213.583 25.6904 213.583 25C213.583 24.5858 213.919 24.25 214.333 24.25C214.748 24.25 215.083 24.5858 215.083 25Z" fill="#34707E"/>
<path d="M267.177 11.0469V21H265.461V11.0469H267.177ZM270.78 15.1826V21H269.132V13.6035H270.684L270.78 15.1826ZM270.486 17.0283L269.953 17.0215C269.957 16.4974 270.03 16.0166 270.171 15.5791C270.317 15.1416 270.518 14.7656 270.773 14.4512C271.033 14.1367 271.343 13.8952 271.703 13.7266C272.063 13.5534 272.464 13.4668 272.906 13.4668C273.261 13.4668 273.583 13.5169 273.87 13.6172C274.161 13.7129 274.41 13.8701 274.615 14.0889C274.824 14.3076 274.984 14.5924 275.093 14.9434C275.203 15.2897 275.257 15.7158 275.257 16.2217V21H273.603V16.2148C273.603 15.8594 273.551 15.5791 273.446 15.374C273.346 15.1644 273.197 15.0163 273.001 14.9297C272.81 14.8385 272.571 14.793 272.284 14.793C272.001 14.793 271.748 14.8522 271.525 14.9707C271.302 15.0892 271.112 15.251 270.958 15.4561C270.807 15.6611 270.691 15.8981 270.609 16.167C270.527 16.4359 270.486 16.723 270.486 17.0283ZM285.826 18.4365C285.826 18.2314 285.794 18.0492 285.73 17.8896C285.671 17.7301 285.564 17.5843 285.409 17.4521C285.254 17.32 285.035 17.1924 284.752 17.0693C284.474 16.9417 284.119 16.8118 283.686 16.6797C283.212 16.5339 282.775 16.3721 282.374 16.1943C281.977 16.012 281.631 15.8024 281.334 15.5654C281.038 15.3239 280.808 15.0482 280.644 14.7383C280.48 14.4238 280.398 14.0615 280.398 13.6514C280.398 13.2458 280.482 12.8766 280.651 12.5439C280.824 12.2113 281.068 11.9242 281.382 11.6826C281.701 11.4365 282.077 11.2474 282.51 11.1152C282.943 10.9785 283.422 10.9102 283.946 10.9102C284.684 10.9102 285.32 11.0469 285.853 11.3203C286.391 11.5938 286.803 11.9606 287.09 12.4209C287.382 12.8812 287.528 13.3893 287.528 13.9453H285.826C285.826 13.6172 285.755 13.3278 285.614 13.0771C285.477 12.8219 285.267 12.6214 284.985 12.4756C284.707 12.3298 284.354 12.2568 283.925 12.2568C283.52 12.2568 283.182 12.3184 282.914 12.4414C282.645 12.5645 282.444 12.7308 282.312 12.9404C282.18 13.1501 282.114 13.387 282.114 13.6514C282.114 13.8382 282.157 14.0091 282.244 14.1641C282.33 14.3145 282.462 14.4557 282.64 14.5879C282.818 14.7155 283.041 14.8363 283.31 14.9502C283.579 15.0641 283.896 15.1735 284.26 15.2783C284.812 15.4424 285.292 15.6247 285.703 15.8252C286.113 16.0212 286.455 16.2445 286.728 16.4951C287.001 16.7458 287.207 17.0306 287.343 17.3496C287.48 17.6641 287.548 18.0218 287.548 18.4229C287.548 18.8421 287.464 19.2204 287.295 19.5576C287.127 19.8903 286.885 20.1751 286.571 20.4121C286.261 20.6445 285.887 20.8245 285.45 20.9521C285.017 21.0752 284.534 21.1367 284 21.1367C283.522 21.1367 283.05 21.0729 282.585 20.9453C282.125 20.8177 281.706 20.624 281.328 20.3643C280.949 20.0999 280.649 19.7718 280.425 19.3799C280.202 18.9834 280.09 18.5208 280.09 17.9922H281.806C281.806 18.3158 281.861 18.5915 281.97 18.8193C282.084 19.0472 282.241 19.234 282.442 19.3799C282.642 19.5212 282.875 19.626 283.139 19.6943C283.408 19.7627 283.695 19.7969 284 19.7969C284.402 19.7969 284.736 19.7399 285.005 19.626C285.279 19.512 285.484 19.3525 285.621 19.1475C285.757 18.9424 285.826 18.7054 285.826 18.4365ZM292.292 13.6035V14.8066H288.123V13.6035H292.292ZM289.326 11.792H290.973V18.9561C290.973 19.1839 291.005 19.3594 291.069 19.4824C291.137 19.6009 291.231 19.6807 291.349 19.7217C291.468 19.7627 291.607 19.7832 291.766 19.7832C291.88 19.7832 291.989 19.7764 292.094 19.7627C292.199 19.749 292.283 19.7354 292.347 19.7217L292.354 20.9795C292.217 21.0205 292.058 21.057 291.875 21.0889C291.698 21.1208 291.493 21.1367 291.26 21.1367C290.882 21.1367 290.547 21.0706 290.255 20.9385C289.964 20.8018 289.736 20.5807 289.572 20.2754C289.408 19.9701 289.326 19.5645 289.326 19.0586V11.792ZM293.085 17.3838V17.2266C293.085 16.6934 293.163 16.1989 293.318 15.7432C293.473 15.2829 293.696 14.8841 293.988 14.5469C294.284 14.2051 294.644 13.9408 295.068 13.7539C295.496 13.5625 295.979 13.4668 296.517 13.4668C297.059 13.4668 297.542 13.5625 297.966 13.7539C298.395 13.9408 298.757 14.2051 299.053 14.5469C299.349 14.8841 299.575 15.2829 299.73 15.7432C299.885 16.1989 299.962 16.6934 299.962 17.2266V17.3838C299.962 17.917 299.885 18.4115 299.73 18.8672C299.575 19.3229 299.349 19.7217 299.053 20.0635C298.757 20.4007 298.397 20.665 297.973 20.8564C297.549 21.0433 297.069 21.1367 296.531 21.1367C295.988 21.1367 295.503 21.0433 295.075 20.8564C294.651 20.665 294.291 20.4007 293.995 20.0635C293.698 19.7217 293.473 19.3229 293.318 18.8672C293.163 18.4115 293.085 17.917 293.085 17.3838ZM294.733 17.2266V17.3838C294.733 17.7165 294.767 18.0309 294.835 18.3271C294.904 18.6234 295.011 18.8831 295.157 19.1064C295.303 19.3298 295.489 19.5052 295.717 19.6328C295.945 19.7604 296.216 19.8242 296.531 19.8242C296.836 19.8242 297.1 19.7604 297.324 19.6328C297.552 19.5052 297.738 19.3298 297.884 19.1064C298.03 18.8831 298.137 18.6234 298.206 18.3271C298.278 18.0309 298.315 17.7165 298.315 17.3838V17.2266C298.315 16.8984 298.278 16.5885 298.206 16.2969C298.137 16.0007 298.028 15.7386 297.877 15.5107C297.732 15.2829 297.545 15.1051 297.317 14.9775C297.094 14.8454 296.827 14.7793 296.517 14.7793C296.207 14.7793 295.938 14.8454 295.71 14.9775C295.487 15.1051 295.303 15.2829 295.157 15.5107C295.011 15.7386 294.904 16.0007 294.835 16.2969C294.767 16.5885 294.733 16.8984 294.733 17.2266ZM304.365 19.8242C304.634 19.8242 304.875 19.7718 305.089 19.667C305.308 19.5576 305.484 19.4072 305.616 19.2158C305.752 19.0244 305.828 18.8034 305.841 18.5527H307.393C307.384 19.0312 307.243 19.4665 306.969 19.8584C306.696 20.2503 306.333 20.5625 305.882 20.7949C305.431 21.0228 304.932 21.1367 304.385 21.1367C303.82 21.1367 303.328 21.041 302.909 20.8496C302.489 20.6536 302.141 20.3848 301.863 20.043C301.585 19.7012 301.375 19.307 301.234 18.8604C301.097 18.4137 301.029 17.9352 301.029 17.4248V17.1855C301.029 16.6751 301.097 16.1966 301.234 15.75C301.375 15.2988 301.585 14.9023 301.863 14.5605C302.141 14.2188 302.489 13.9521 302.909 13.7607C303.328 13.5648 303.818 13.4668 304.378 13.4668C304.971 13.4668 305.49 13.5853 305.937 13.8223C306.384 14.0547 306.735 14.3805 306.99 14.7998C307.25 15.2145 307.384 15.6976 307.393 16.249H305.841C305.828 15.9756 305.759 15.7295 305.636 15.5107C305.518 15.2874 305.349 15.1097 305.13 14.9775C304.916 14.8454 304.659 14.7793 304.358 14.7793C304.025 14.7793 303.75 14.8477 303.531 14.9844C303.312 15.1165 303.141 15.2988 303.018 15.5312C302.895 15.7591 302.806 16.0166 302.751 16.3037C302.701 16.5863 302.676 16.8802 302.676 17.1855V17.4248C302.676 17.7301 302.701 18.0264 302.751 18.3135C302.802 18.6006 302.888 18.8581 303.011 19.0859C303.139 19.3092 303.312 19.4893 303.531 19.626C303.75 19.7581 304.028 19.8242 304.365 19.8242ZM310.319 10.5V21H308.665V10.5H310.319ZM314.913 13.6035L311.693 17.1719L309.929 18.9766L309.499 17.582L310.832 15.9346L312.923 13.6035H314.913ZM313.279 21L310.879 17.5273L311.918 16.3721L315.186 21H313.279Z" fill="#717171"/>
<path d="M269.44 35.0469V45H267.738V35.0469H269.44ZM272.564 35.0469V36.4141H264.641V35.0469H272.564ZM272.441 41.3838V41.2266C272.441 40.6934 272.518 40.1989 272.673 39.7432C272.828 39.2829 273.052 38.8841 273.343 38.5469C273.639 38.2051 274 37.9408 274.423 37.7539C274.852 37.5625 275.335 37.4668 275.873 37.4668C276.415 37.4668 276.898 37.5625 277.322 37.7539C277.75 37.9408 278.112 38.2051 278.409 38.5469C278.705 38.8841 278.931 39.2829 279.085 39.7432C279.24 40.1989 279.318 40.6934 279.318 41.2266V41.3838C279.318 41.917 279.24 42.4115 279.085 42.8672C278.931 43.3229 278.705 43.7217 278.409 44.0635C278.112 44.4007 277.752 44.665 277.329 44.8564C276.905 45.0433 276.424 45.1367 275.886 45.1367C275.344 45.1367 274.859 45.0433 274.43 44.8564C274.006 44.665 273.646 44.4007 273.35 44.0635C273.054 43.7217 272.828 43.3229 272.673 42.8672C272.518 42.4115 272.441 41.917 272.441 41.3838ZM274.088 41.2266V41.3838C274.088 41.7165 274.123 42.0309 274.191 42.3271C274.259 42.6234 274.366 42.8831 274.512 43.1064C274.658 43.3298 274.845 43.5052 275.073 43.6328C275.301 43.7604 275.572 43.8242 275.886 43.8242C276.192 43.8242 276.456 43.7604 276.679 43.6328C276.907 43.5052 277.094 43.3298 277.24 43.1064C277.386 42.8831 277.493 42.6234 277.561 42.3271C277.634 42.0309 277.67 41.7165 277.67 41.3838V41.2266C277.67 40.8984 277.634 40.5885 277.561 40.2969C277.493 40.0007 277.383 39.7386 277.233 39.5107C277.087 39.2829 276.9 39.1051 276.672 38.9775C276.449 38.8454 276.182 38.7793 275.873 38.7793C275.563 38.7793 275.294 38.8454 275.066 38.9775C274.843 39.1051 274.658 39.2829 274.512 39.5107C274.366 39.7386 274.259 40.0007 274.191 40.2969C274.123 40.5885 274.088 40.8984 274.088 41.2266ZM285.21 43.4688V34.5H286.865V45H285.368L285.21 43.4688ZM280.398 41.3838V41.2402C280.398 40.6797 280.464 40.1693 280.596 39.709C280.728 39.2441 280.92 38.8454 281.17 38.5127C281.421 38.1755 281.726 37.918 282.086 37.7402C282.446 37.5579 282.852 37.4668 283.303 37.4668C283.75 37.4668 284.142 37.5534 284.479 37.7266C284.816 37.8997 285.103 38.1481 285.34 38.4717C285.577 38.7907 285.766 39.1735 285.908 39.6201C286.049 40.0622 286.149 40.5544 286.208 41.0967V41.5547C286.149 42.0833 286.049 42.5664 285.908 43.0039C285.766 43.4414 285.577 43.8197 285.34 44.1387C285.103 44.4577 284.814 44.7038 284.472 44.877C284.135 45.0501 283.741 45.1367 283.29 45.1367C282.843 45.1367 282.44 45.0433 282.08 44.8564C281.724 44.6696 281.421 44.4076 281.17 44.0703C280.92 43.7331 280.728 43.3366 280.596 42.8809C280.464 42.4206 280.398 41.9215 280.398 41.3838ZM282.045 41.2402V41.3838C282.045 41.721 282.075 42.0355 282.134 42.3271C282.198 42.6188 282.296 42.8763 282.428 43.0996C282.56 43.3184 282.731 43.4915 282.941 43.6191C283.155 43.7422 283.41 43.8037 283.707 43.8037C284.08 43.8037 284.388 43.7217 284.629 43.5576C284.871 43.3936 285.06 43.1725 285.197 42.8945C285.338 42.612 285.434 42.2975 285.484 41.9512V40.7139C285.457 40.445 285.4 40.1943 285.313 39.9619C285.231 39.7295 285.119 39.5267 284.978 39.3535C284.837 39.1758 284.661 39.0391 284.452 38.9434C284.247 38.8431 284.003 38.793 283.72 38.793C283.419 38.793 283.164 38.8568 282.955 38.9844C282.745 39.112 282.572 39.2874 282.435 39.5107C282.303 39.734 282.205 39.9938 282.141 40.29C282.077 40.5863 282.045 40.903 282.045 41.2402ZM292.757 43.5166V39.9893C292.757 39.7249 292.709 39.4971 292.614 39.3057C292.518 39.1143 292.372 38.9661 292.176 38.8613C291.985 38.7565 291.743 38.7041 291.452 38.7041C291.183 38.7041 290.95 38.7497 290.754 38.8408C290.558 38.932 290.406 39.055 290.296 39.21C290.187 39.3649 290.132 39.5404 290.132 39.7363H288.492C288.492 39.4447 288.562 39.1621 288.704 38.8887C288.845 38.6152 289.05 38.3714 289.319 38.1572C289.588 37.943 289.909 37.7744 290.283 37.6514C290.656 37.5283 291.076 37.4668 291.541 37.4668C292.097 37.4668 292.589 37.5602 293.017 37.7471C293.45 37.9339 293.79 38.2165 294.036 38.5947C294.286 38.9684 294.412 39.4378 294.412 40.0029V43.291C294.412 43.6283 294.434 43.9313 294.48 44.2002C294.53 44.4645 294.601 44.6947 294.692 44.8906V45H293.003C292.926 44.8223 292.864 44.5967 292.819 44.3232C292.778 44.0452 292.757 43.7764 292.757 43.5166ZM292.997 40.502L293.01 41.5205H291.828C291.522 41.5205 291.253 41.5501 291.021 41.6094C290.789 41.6641 290.595 41.7461 290.44 41.8555C290.285 41.9648 290.169 42.097 290.091 42.252C290.014 42.4069 289.975 42.5824 289.975 42.7783C289.975 42.9743 290.021 43.1543 290.112 43.3184C290.203 43.4779 290.335 43.6032 290.508 43.6943C290.686 43.7855 290.9 43.8311 291.151 43.8311C291.488 43.8311 291.782 43.7627 292.033 43.626C292.288 43.4847 292.488 43.3138 292.634 43.1133C292.78 42.9082 292.858 42.7145 292.867 42.5322L293.4 43.2637C293.345 43.4505 293.252 43.651 293.12 43.8652C292.987 44.0794 292.814 44.2845 292.6 44.4805C292.39 44.6719 292.138 44.8291 291.841 44.9521C291.55 45.0752 291.212 45.1367 290.83 45.1367C290.347 45.1367 289.916 45.041 289.538 44.8496C289.159 44.6536 288.863 44.3916 288.649 44.0635C288.435 43.7308 288.328 43.3548 288.328 42.9355C288.328 42.5436 288.401 42.1973 288.546 41.8965C288.697 41.5911 288.916 41.3359 289.203 41.1309C289.494 40.9258 289.85 40.7708 290.269 40.666C290.688 40.5566 291.167 40.502 291.705 40.502H292.997ZM298.171 44.1934L300.181 37.6035H301.945L298.978 46.1279C298.91 46.3102 298.821 46.5085 298.711 46.7227C298.602 46.9368 298.458 47.1396 298.281 47.3311C298.108 47.527 297.891 47.6842 297.631 47.8027C297.372 47.9258 297.057 47.9873 296.688 47.9873C296.542 47.9873 296.401 47.9736 296.264 47.9463C296.132 47.9235 296.007 47.8984 295.888 47.8711L295.881 46.6133C295.927 46.6178 295.982 46.6224 296.045 46.627C296.114 46.6315 296.168 46.6338 296.209 46.6338C296.483 46.6338 296.711 46.5996 296.893 46.5312C297.075 46.4674 297.223 46.3626 297.337 46.2168C297.456 46.071 297.556 45.875 297.638 45.6289L298.171 44.1934ZM297.037 37.6035L298.793 43.1406L299.087 44.877L297.946 45.1709L295.259 37.6035H297.037Z" fill="black"/>
<rect x="384.667" width="56" height="56" rx="11" fill="#EFEFEF"/>
<path d="M411.457 31.17C411.257 31.17 411.067 31.09 410.927 30.95L408.507 28.53C408.217 28.24 408.217 27.76 408.507 27.47C408.797 27.18 409.277 27.18 409.567 27.47L411.457 29.36L415.757 25.06C416.047 24.77 416.527 24.77 416.817 25.06C417.107 25.35 417.107 25.83 416.817 26.12L411.987 30.95C411.847 31.09 411.657 31.17 411.457 31.17Z" fill="#34707E"/>
<path d="M412.666 38.75C412.036 38.75 411.406 38.54 410.916 38.12L409.336 36.76C409.176 36.62 408.776 36.48 408.566 36.48H406.846C405.366 36.48 404.166 35.28 404.166 33.8V32.09C404.166 31.88 404.026 31.49 403.886 31.33L402.536 29.74C401.716 28.77 401.716 27.24 402.536 26.27L403.886 24.68C404.026 24.52 404.166 24.13 404.166 23.92V22.2C404.166 20.72 405.366 19.52 406.846 19.52H408.576C408.786 19.52 409.186 19.37 409.346 19.24L410.926 17.88C411.906 17.04 413.436 17.04 414.416 17.88L415.996 19.24C416.156 19.38 416.556 19.52 416.766 19.52H418.466C419.946 19.52 421.146 20.72 421.146 22.2V23.9C421.146 24.11 421.296 24.51 421.436 24.67L422.796 26.25C423.636 27.23 423.636 28.76 422.796 29.74L421.436 31.32C421.296 31.48 421.146 31.88 421.146 32.09V33.79C421.146 35.27 419.946 36.47 418.466 36.47H416.766C416.556 36.47 416.156 36.62 415.996 36.75L414.416 38.11C413.926 38.54 413.296 38.75 412.666 38.75ZM406.846 21.02C406.196 21.02 405.666 21.55 405.666 22.2V23.91C405.666 24.48 405.396 25.21 405.026 25.64L403.676 27.23C403.326 27.64 403.326 28.35 403.676 28.76L405.026 30.35C405.396 30.79 405.666 31.51 405.666 32.08V33.79C405.666 34.44 406.196 34.97 406.846 34.97H408.576C409.156 34.97 409.886 35.24 410.326 35.62L411.906 36.98C412.316 37.33 413.036 37.33 413.446 36.98L415.026 35.62C415.466 35.25 416.196 34.97 416.776 34.97H418.476C419.126 34.97 419.656 34.44 419.656 33.79V32.09C419.656 31.51 419.926 30.78 420.306 30.34L421.666 28.76C422.016 28.35 422.016 27.63 421.666 27.22L420.306 25.64C419.926 25.2 419.656 24.47 419.656 23.89V22.2C419.656 21.55 419.126 21.02 418.476 21.02H416.776C416.196 21.02 415.466 20.75 415.026 20.37L413.446 19.01C413.036 18.66 412.316 18.66 411.906 19.01L410.326 20.38C409.886 20.75 409.146 21.02 408.576 21.02H406.846Z" fill="#34707E"/>
<path d="M465.321 15.9141V19.7148C465.18 19.9017 464.958 20.1068 464.658 20.3301C464.361 20.5488 463.967 20.738 463.475 20.8975C462.983 21.057 462.37 21.1367 461.636 21.1367C461.012 21.1367 460.44 21.0319 459.92 20.8223C459.401 20.6081 458.952 20.2959 458.574 19.8857C458.2 19.4756 457.911 18.9766 457.706 18.3887C457.5 17.7962 457.398 17.1217 457.398 16.3652V15.6748C457.398 14.9229 457.491 14.2529 457.678 13.665C457.87 13.0726 458.143 12.5713 458.499 12.1611C458.854 11.751 459.282 11.4411 459.784 11.2314C460.29 11.0173 460.861 10.9102 461.5 10.9102C462.315 10.9102 462.99 11.0469 463.523 11.3203C464.061 11.5892 464.475 11.9629 464.767 12.4414C465.059 12.9199 465.243 13.4668 465.321 14.082H463.639C463.584 13.7357 463.477 13.4258 463.318 13.1523C463.163 12.8789 462.94 12.6647 462.648 12.5098C462.361 12.3503 461.987 12.2705 461.527 12.2705C461.13 12.2705 460.782 12.3457 460.481 12.4961C460.18 12.6465 459.93 12.8675 459.729 13.1592C459.533 13.4508 459.385 13.8063 459.285 14.2256C459.184 14.6449 459.134 15.1234 459.134 15.6611V16.3652C459.134 16.9121 459.191 17.3975 459.305 17.8213C459.424 18.2451 459.592 18.6029 459.811 18.8945C460.034 19.1862 460.306 19.4072 460.625 19.5576C460.944 19.7035 461.304 19.7764 461.705 19.7764C462.097 19.7764 462.418 19.7445 462.668 19.6807C462.919 19.6123 463.117 19.5326 463.263 19.4414C463.414 19.3457 463.53 19.2546 463.612 19.168V17.1924H461.541V15.9141H465.321ZM471.507 19.2568V13.6035H473.162V21H471.603L471.507 19.2568ZM471.74 17.7188L472.293 17.7051C472.293 18.2018 472.239 18.6598 472.129 19.0791C472.02 19.4938 471.851 19.8561 471.624 20.166C471.396 20.4714 471.104 20.7106 470.749 20.8838C470.393 21.0524 469.967 21.1367 469.47 21.1367C469.11 21.1367 468.78 21.0843 468.479 20.9795C468.178 20.8747 467.918 20.7129 467.7 20.4941C467.486 20.2754 467.319 19.9906 467.201 19.6396C467.082 19.2887 467.023 18.8695 467.023 18.3818V13.6035H468.67V18.3955C468.67 18.6644 468.702 18.89 468.766 19.0723C468.83 19.25 468.917 19.3936 469.026 19.5029C469.135 19.6123 469.263 19.6898 469.409 19.7354C469.555 19.7809 469.709 19.8037 469.874 19.8037C470.343 19.8037 470.712 19.7126 470.981 19.5303C471.254 19.3434 471.448 19.0928 471.562 18.7783C471.681 18.4639 471.74 18.1107 471.74 17.7188ZM479.02 19.5166V15.9893C479.02 15.7249 478.972 15.4971 478.876 15.3057C478.781 15.1143 478.635 14.9661 478.439 14.8613C478.248 14.7565 478.006 14.7041 477.714 14.7041C477.445 14.7041 477.213 14.7497 477.017 14.8408C476.821 14.932 476.668 15.055 476.559 15.21C476.45 15.3649 476.395 15.5404 476.395 15.7363H474.754C474.754 15.4447 474.825 15.1621 474.966 14.8887C475.108 14.6152 475.313 14.3714 475.582 14.1572C475.85 13.943 476.172 13.7744 476.545 13.6514C476.919 13.5283 477.338 13.4668 477.803 13.4668C478.359 13.4668 478.851 13.5602 479.28 13.7471C479.713 13.9339 480.052 14.2165 480.298 14.5947C480.549 14.9684 480.674 15.4378 480.674 16.0029V19.291C480.674 19.6283 480.697 19.9313 480.743 20.2002C480.793 20.4645 480.863 20.6947 480.955 20.8906V21H479.266C479.189 20.8223 479.127 20.5967 479.082 20.3232C479.041 20.0452 479.02 19.7764 479.02 19.5166ZM479.259 16.502L479.273 17.5205H478.09C477.785 17.5205 477.516 17.5501 477.284 17.6094C477.051 17.6641 476.858 17.7461 476.703 17.8555C476.548 17.9648 476.431 18.097 476.354 18.252C476.277 18.4069 476.238 18.5824 476.238 18.7783C476.238 18.9743 476.283 19.1543 476.375 19.3184C476.466 19.4779 476.598 19.6032 476.771 19.6943C476.949 19.7855 477.163 19.8311 477.414 19.8311C477.751 19.8311 478.045 19.7627 478.295 19.626C478.551 19.4847 478.751 19.3138 478.897 19.1133C479.043 18.9082 479.12 18.7145 479.129 18.5322L479.663 19.2637C479.608 19.4505 479.514 19.651 479.382 19.8652C479.25 20.0794 479.077 20.2845 478.863 20.4805C478.653 20.6719 478.4 20.8291 478.104 20.9521C477.812 21.0752 477.475 21.1367 477.092 21.1367C476.609 21.1367 476.179 21.041 475.8 20.8496C475.422 20.6536 475.126 20.3916 474.912 20.0635C474.697 19.7308 474.59 19.3548 474.59 18.9355C474.59 18.5436 474.663 18.1973 474.809 17.8965C474.959 17.5911 475.178 17.3359 475.465 17.1309C475.757 16.9258 476.112 16.7708 476.532 16.666C476.951 16.5566 477.43 16.502 477.967 16.502H479.259ZM484.051 15.0117V21H482.404V13.6035H483.976L484.051 15.0117ZM486.314 13.5557L486.3 15.0869C486.2 15.0687 486.091 15.055 485.972 15.0459C485.858 15.0368 485.744 15.0322 485.63 15.0322C485.348 15.0322 485.099 15.0732 484.885 15.1553C484.671 15.2327 484.491 15.3467 484.345 15.4971C484.204 15.6429 484.095 15.8206 484.017 16.0303C483.94 16.2399 483.894 16.4746 483.88 16.7344L483.504 16.7617C483.504 16.2969 483.55 15.8662 483.641 15.4697C483.732 15.0732 483.869 14.7246 484.051 14.4238C484.238 14.123 484.471 13.8883 484.749 13.7197C485.031 13.5511 485.357 13.4668 485.726 13.4668C485.826 13.4668 485.933 13.4759 486.047 13.4941C486.166 13.5124 486.255 13.5329 486.314 13.5557ZM491.27 19.5166V15.9893C491.27 15.7249 491.222 15.4971 491.126 15.3057C491.031 15.1143 490.885 14.9661 490.689 14.8613C490.498 14.7565 490.256 14.7041 489.964 14.7041C489.695 14.7041 489.463 14.7497 489.267 14.8408C489.071 14.932 488.918 15.055 488.809 15.21C488.7 15.3649 488.645 15.5404 488.645 15.7363H487.004C487.004 15.4447 487.075 15.1621 487.216 14.8887C487.358 14.6152 487.563 14.3714 487.832 14.1572C488.1 13.943 488.422 13.7744 488.795 13.6514C489.169 13.5283 489.588 13.4668 490.053 13.4668C490.609 13.4668 491.101 13.5602 491.53 13.7471C491.963 13.9339 492.302 14.2165 492.548 14.5947C492.799 14.9684 492.924 15.4378 492.924 16.0029V19.291C492.924 19.6283 492.947 19.9313 492.993 20.2002C493.043 20.4645 493.113 20.6947 493.205 20.8906V21H491.516C491.439 20.8223 491.377 20.5967 491.332 20.3232C491.291 20.0452 491.27 19.7764 491.27 19.5166ZM491.509 16.502L491.523 17.5205H490.34C490.035 17.5205 489.766 17.5501 489.534 17.6094C489.301 17.6641 489.108 17.7461 488.953 17.8555C488.798 17.9648 488.681 18.097 488.604 18.252C488.527 18.4069 488.488 18.5824 488.488 18.7783C488.488 18.9743 488.533 19.1543 488.625 19.3184C488.716 19.4779 488.848 19.6032 489.021 19.6943C489.199 19.7855 489.413 19.8311 489.664 19.8311C490.001 19.8311 490.295 19.7627 490.545 19.626C490.801 19.4847 491.001 19.3138 491.147 19.1133C491.293 18.9082 491.37 18.7145 491.379 18.5322L491.913 19.2637C491.858 19.4505 491.764 19.651 491.632 19.8652C491.5 20.0794 491.327 20.2845 491.113 20.4805C490.903 20.6719 490.65 20.8291 490.354 20.9521C490.062 21.0752 489.725 21.1367 489.342 21.1367C488.859 21.1367 488.429 21.041 488.05 20.8496C487.672 20.6536 487.376 20.3916 487.162 20.0635C486.947 19.7308 486.84 19.3548 486.84 18.9355C486.84 18.5436 486.913 18.1973 487.059 17.8965C487.209 17.5911 487.428 17.3359 487.715 17.1309C488.007 16.9258 488.362 16.7708 488.782 16.666C489.201 16.5566 489.68 16.502 490.217 16.502H491.509ZM496.281 15.1826V21H494.633V13.6035H496.185L496.281 15.1826ZM495.987 17.0283L495.454 17.0215C495.458 16.4974 495.531 16.0166 495.672 15.5791C495.818 15.1416 496.019 14.7656 496.274 14.4512C496.534 14.1367 496.844 13.8952 497.204 13.7266C497.564 13.5534 497.965 13.4668 498.407 13.4668C498.762 13.4668 499.083 13.5169 499.371 13.6172C499.662 13.7129 499.911 13.8701 500.116 14.0889C500.325 14.3076 500.485 14.5924 500.594 14.9434C500.704 15.2897 500.758 15.7158 500.758 16.2217V21H499.104V16.2148C499.104 15.8594 499.052 15.5791 498.947 15.374C498.847 15.1644 498.698 15.0163 498.502 14.9297C498.311 14.8385 498.072 14.793 497.785 14.793C497.502 14.793 497.249 14.8522 497.026 14.9707C496.803 15.0892 496.613 15.251 496.458 15.4561C496.308 15.6611 496.192 15.8981 496.11 16.167C496.028 16.4359 495.987 16.723 495.987 17.0283ZM505.831 13.6035V14.8066H501.661V13.6035H505.831ZM502.864 11.792H504.511V18.9561C504.511 19.1839 504.543 19.3594 504.607 19.4824C504.675 19.6009 504.769 19.6807 504.887 19.7217C505.006 19.7627 505.145 19.7832 505.304 19.7832C505.418 19.7832 505.528 19.7764 505.632 19.7627C505.737 19.749 505.821 19.7354 505.885 19.7217L505.892 20.9795C505.755 21.0205 505.596 21.057 505.414 21.0889C505.236 21.1208 505.031 21.1367 504.798 21.1367C504.42 21.1367 504.085 21.0706 503.793 20.9385C503.502 20.8018 503.274 20.5807 503.11 20.2754C502.946 19.9701 502.864 19.5645 502.864 19.0586V11.792ZM510.363 21.1367C509.816 21.1367 509.321 21.0479 508.879 20.8701C508.442 20.6878 508.068 20.4349 507.758 20.1113C507.453 19.7878 507.218 19.4072 507.054 18.9697C506.89 18.5322 506.808 18.0605 506.808 17.5547V17.2812C506.808 16.7025 506.892 16.1784 507.061 15.709C507.23 15.2396 507.464 14.8385 507.765 14.5059C508.066 14.1686 508.421 13.9111 508.832 13.7334C509.242 13.5557 509.686 13.4668 510.165 13.4668C510.693 13.4668 511.156 13.5557 511.552 13.7334C511.949 13.9111 512.277 14.1618 512.537 14.4854C512.801 14.8044 512.997 15.1849 513.125 15.627C513.257 16.069 513.323 16.5566 513.323 17.0898V17.7939H507.608V16.6113H511.696V16.4814C511.687 16.1852 511.627 15.9072 511.518 15.6475C511.413 15.3877 511.251 15.1781 511.033 15.0186C510.814 14.859 510.522 14.7793 510.158 14.7793C509.884 14.7793 509.64 14.8385 509.426 14.957C509.217 15.071 509.041 15.2373 508.9 15.4561C508.759 15.6748 508.649 15.9391 508.572 16.249C508.499 16.5544 508.462 16.8984 508.462 17.2812V17.5547C508.462 17.8783 508.506 18.179 508.592 18.457C508.683 18.7305 508.816 18.9697 508.989 19.1748C509.162 19.3799 509.372 19.5417 509.618 19.6602C509.864 19.7741 510.144 19.8311 510.458 19.8311C510.855 19.8311 511.208 19.7513 511.518 19.5918C511.828 19.4323 512.097 19.2067 512.325 18.915L513.193 19.7559C513.033 19.9883 512.826 20.2116 512.571 20.4258C512.316 20.6354 512.003 20.8063 511.634 20.9385C511.27 21.0706 510.846 21.1367 510.363 21.1367ZM517.869 21.1367C517.322 21.1367 516.827 21.0479 516.385 20.8701C515.948 20.6878 515.574 20.4349 515.264 20.1113C514.959 19.7878 514.724 19.4072 514.56 18.9697C514.396 18.5322 514.314 18.0605 514.314 17.5547V17.2812C514.314 16.7025 514.398 16.1784 514.567 15.709C514.736 15.2396 514.97 14.8385 515.271 14.5059C515.572 14.1686 515.927 13.9111 516.337 13.7334C516.748 13.5557 517.192 13.4668 517.67 13.4668C518.199 13.4668 518.662 13.5557 519.058 13.7334C519.455 13.9111 519.783 14.1618 520.042 14.4854C520.307 14.8044 520.503 15.1849 520.63 15.627C520.763 16.069 520.829 16.5566 520.829 17.0898V17.7939H515.114V16.6113H519.202V16.4814C519.193 16.1852 519.133 15.9072 519.024 15.6475C518.919 15.3877 518.757 15.1781 518.539 15.0186C518.32 14.859 518.028 14.7793 517.664 14.7793C517.39 14.7793 517.146 14.8385 516.932 14.957C516.722 15.071 516.547 15.2373 516.406 15.4561C516.264 15.6748 516.155 15.9391 516.078 16.249C516.005 16.5544 515.968 16.8984 515.968 17.2812V17.5547C515.968 17.8783 516.012 18.179 516.098 18.457C516.189 18.7305 516.321 18.9697 516.495 19.1748C516.668 19.3799 516.877 19.5417 517.124 19.6602C517.37 19.7741 517.65 19.8311 517.964 19.8311C518.361 19.8311 518.714 19.7513 519.024 19.5918C519.334 19.4323 519.603 19.2067 519.831 18.915L520.699 19.7559C520.539 19.9883 520.332 20.2116 520.077 20.4258C519.821 20.6354 519.509 20.8063 519.14 20.9385C518.776 21.0706 518.352 21.1367 517.869 21.1367ZM526.625 19.4688V10.5H528.28V21H526.783L526.625 19.4688ZM521.813 17.3838V17.2402C521.813 16.6797 521.879 16.1693 522.011 15.709C522.143 15.2441 522.335 14.8454 522.585 14.5127C522.836 14.1755 523.141 13.918 523.501 13.7402C523.861 13.5579 524.267 13.4668 524.718 13.4668C525.165 13.4668 525.557 13.5534 525.894 13.7266C526.231 13.8997 526.518 14.1481 526.755 14.4717C526.992 14.7907 527.181 15.1735 527.323 15.6201C527.464 16.0622 527.564 16.5544 527.624 17.0967V17.5547C527.564 18.0833 527.464 18.5664 527.323 19.0039C527.181 19.4414 526.992 19.8197 526.755 20.1387C526.518 20.4577 526.229 20.7038 525.887 20.877C525.55 21.0501 525.156 21.1367 524.705 21.1367C524.258 21.1367 523.855 21.0433 523.495 20.8564C523.139 20.6696 522.836 20.4076 522.585 20.0703C522.335 19.7331 522.143 19.3366 522.011 18.8809C521.879 18.4206 521.813 17.9215 521.813 17.3838ZM523.46 17.2402V17.3838C523.46 17.721 523.49 18.0355 523.549 18.3271C523.613 18.6188 523.711 18.8763 523.843 19.0996C523.975 19.3184 524.146 19.4915 524.356 19.6191C524.57 19.7422 524.825 19.8037 525.122 19.8037C525.495 19.8037 525.803 19.7217 526.044 19.5576C526.286 19.3936 526.475 19.1725 526.612 18.8945C526.753 18.612 526.849 18.2975 526.899 17.9512V16.7139C526.872 16.445 526.815 16.1943 526.728 15.9619C526.646 15.7295 526.534 15.5267 526.393 15.3535C526.252 15.1758 526.076 15.0391 525.867 14.9434C525.662 14.8431 525.418 14.793 525.135 14.793C524.834 14.793 524.579 14.8568 524.37 14.9844C524.16 15.112 523.987 15.2874 523.85 15.5107C523.718 15.734 523.62 15.9938 523.556 16.29C523.492 16.5863 523.46 16.903 523.46 17.2402Z" fill="#717171"/>
<path d="M461.917 35.0127V45H460.269V36.9678L457.829 37.7949V36.4346L461.718 35.0127H461.917ZM471.104 44.1934L473.114 37.6035H474.877L471.911 46.1279C471.842 46.3102 471.753 46.5085 471.644 46.7227C471.535 46.9368 471.391 47.1396 471.213 47.3311C471.04 47.527 470.824 47.6842 470.564 47.8027C470.304 47.9258 469.99 47.9873 469.621 47.9873C469.475 47.9873 469.333 47.9736 469.197 47.9463C469.065 47.9235 468.939 47.8984 468.821 47.8711L468.814 46.6133C468.86 46.6178 468.914 46.6224 468.978 46.627C469.046 46.6315 469.101 46.6338 469.142 46.6338C469.416 46.6338 469.643 46.5996 469.826 46.5312C470.008 46.4674 470.156 46.3626 470.27 46.2168C470.389 46.071 470.489 45.875 470.571 45.6289L471.104 44.1934ZM469.969 37.6035L471.726 43.1406L472.02 44.877L470.878 45.1709L468.192 37.6035H469.969ZM478.986 45.1367C478.439 45.1367 477.944 45.0479 477.502 44.8701C477.065 44.6878 476.691 44.4349 476.381 44.1113C476.076 43.7878 475.841 43.4072 475.677 42.9697C475.513 42.5322 475.431 42.0605 475.431 41.5547V41.2812C475.431 40.7025 475.515 40.1784 475.684 39.709C475.853 39.2396 476.087 38.8385 476.388 38.5059C476.689 38.1686 477.044 37.9111 477.455 37.7334C477.865 37.5557 478.309 37.4668 478.788 37.4668C479.316 37.4668 479.779 37.5557 480.175 37.7334C480.572 37.9111 480.9 38.1618 481.16 38.4854C481.424 38.8044 481.62 39.1849 481.748 39.627C481.88 40.069 481.946 40.5566 481.946 41.0898V41.7939H476.231V40.6113H480.319V40.4814C480.31 40.1852 480.25 39.9072 480.141 39.6475C480.036 39.3877 479.875 39.1781 479.656 39.0186C479.437 38.859 479.145 38.7793 478.781 38.7793C478.507 38.7793 478.264 38.8385 478.049 38.957C477.84 39.071 477.664 39.2373 477.523 39.4561C477.382 39.6748 477.272 39.9391 477.195 40.249C477.122 40.5544 477.085 40.8984 477.085 41.2812V41.5547C477.085 41.8783 477.129 42.179 477.215 42.457C477.306 42.7305 477.439 42.9697 477.612 43.1748C477.785 43.3799 477.995 43.5417 478.241 43.6602C478.487 43.7741 478.767 43.8311 479.082 43.8311C479.478 43.8311 479.831 43.7513 480.141 43.5918C480.451 43.4323 480.72 43.2067 480.948 42.915L481.816 43.7559C481.656 43.9883 481.449 44.2116 481.194 44.4258C480.939 44.6354 480.626 44.8063 480.257 44.9385C479.893 45.0706 479.469 45.1367 478.986 45.1367ZM487.401 43.5166V39.9893C487.401 39.7249 487.353 39.4971 487.257 39.3057C487.162 39.1143 487.016 38.9661 486.82 38.8613C486.628 38.7565 486.387 38.7041 486.095 38.7041C485.826 38.7041 485.594 38.7497 485.398 38.8408C485.202 38.932 485.049 39.055 484.94 39.21C484.831 39.3649 484.776 39.5404 484.776 39.7363H483.135C483.135 39.4447 483.206 39.1621 483.347 38.8887C483.488 38.6152 483.694 38.3714 483.962 38.1572C484.231 37.943 484.553 37.7744 484.926 37.6514C485.3 37.5283 485.719 37.4668 486.184 37.4668C486.74 37.4668 487.232 37.5602 487.661 37.7471C488.094 37.9339 488.433 38.2165 488.679 38.5947C488.93 38.9684 489.055 39.4378 489.055 40.0029V43.291C489.055 43.6283 489.078 43.9313 489.124 44.2002C489.174 44.4645 489.244 44.6947 489.335 44.8906V45H487.647C487.569 44.8223 487.508 44.5967 487.462 44.3232C487.421 44.0452 487.401 43.7764 487.401 43.5166ZM487.64 40.502L487.654 41.5205H486.471C486.166 41.5205 485.897 41.5501 485.665 41.6094C485.432 41.6641 485.238 41.7461 485.083 41.8555C484.929 41.9648 484.812 42.097 484.735 42.252C484.657 42.4069 484.619 42.5824 484.619 42.7783C484.619 42.9743 484.664 43.1543 484.755 43.3184C484.847 43.4779 484.979 43.6032 485.152 43.6943C485.33 43.7855 485.544 43.8311 485.794 43.8311C486.132 43.8311 486.426 43.7627 486.676 43.626C486.931 43.4847 487.132 43.3138 487.278 43.1133C487.424 42.9082 487.501 42.7145 487.51 42.5322L488.043 43.2637C487.989 43.4505 487.895 43.651 487.763 43.8652C487.631 44.0794 487.458 44.2845 487.244 44.4805C487.034 44.6719 486.781 44.8291 486.485 44.9521C486.193 45.0752 485.856 45.1367 485.473 45.1367C484.99 45.1367 484.559 45.041 484.181 44.8496C483.803 44.6536 483.507 44.3916 483.292 44.0635C483.078 43.7308 482.971 43.3548 482.971 42.9355C482.971 42.5436 483.044 42.1973 483.19 41.8965C483.34 41.5911 483.559 41.3359 483.846 41.1309C484.138 40.9258 484.493 40.7708 484.913 40.666C485.332 40.5566 485.81 40.502 486.348 40.502H487.64ZM492.432 39.0117V45H490.785V37.6035H492.357L492.432 39.0117ZM494.695 37.5557L494.681 39.0869C494.581 39.0687 494.472 39.055 494.353 39.0459C494.239 39.0368 494.125 39.0322 494.011 39.0322C493.729 39.0322 493.48 39.0732 493.266 39.1553C493.052 39.2327 492.872 39.3467 492.726 39.4971C492.585 39.6429 492.475 39.8206 492.398 40.0303C492.32 40.2399 492.275 40.4746 492.261 40.7344L491.885 40.7617C491.885 40.2969 491.931 39.8662 492.022 39.4697C492.113 39.0732 492.25 38.7246 492.432 38.4238C492.619 38.123 492.851 37.8883 493.129 37.7197C493.412 37.5511 493.738 37.4668 494.107 37.4668C494.207 37.4668 494.314 37.4759 494.428 37.4941C494.547 37.5124 494.636 37.5329 494.695 37.5557Z" fill="black"/>
</svg>
