<svg width="24" height="25" viewBox="0 0 24 25" fill="none" xmlns="http://www.w3.org/2000/svg">
<g id="Instagram">
<rect id="Social Media Icon" y="0.625" width="24" height="24" rx="4" fill="#3B8190"/>
<path id="Instagram_2" fill-rule="evenodd" clip-rule="evenodd" d="M6 12.625C6 10.2282 6 9.02986 6.57113 8.1667C6.82616 7.78126 7.15626 7.45116 7.5417 7.19613C8.40486 6.625 9.60324 6.625 12 6.625C14.3968 6.625 15.5951 6.625 16.4583 7.19613C16.8437 7.45116 17.1738 7.78126 17.4289 8.1667C18 9.02986 18 10.2282 18 12.625C18 15.0218 18 16.2201 17.4289 17.0833C17.1738 17.4687 16.8437 17.7988 16.4583 18.0539C15.5951 18.625 14.3968 18.625 12 18.625C9.60324 18.625 8.40486 18.625 7.5417 18.0539C7.15626 17.7988 6.82616 17.4687 6.57113 17.0833C6 16.2201 6 15.0218 6 12.625ZM15.1062 12.6252C15.1062 14.3407 13.7154 15.7314 11.9999 15.7314C10.2843 15.7314 8.89362 14.3407 8.89362 12.6252C8.89362 10.9096 10.2843 9.51888 11.9999 9.51888C13.7154 9.51888 15.1062 10.9096 15.1062 12.6252ZM11.9999 14.6805C13.135 14.6805 14.0552 13.7603 14.0552 12.6252C14.0552 11.49 13.135 10.5698 11.9999 10.5698C10.8648 10.5698 9.94456 11.49 9.94456 12.6252C9.94456 13.7603 10.8648 14.6805 11.9999 14.6805ZM15.2288 10.0927C15.632 10.0927 15.9587 9.76592 15.9587 9.36282C15.9587 8.95971 15.632 8.63293 15.2288 8.63293C14.8257 8.63293 14.499 8.95971 14.499 9.36282C14.499 9.76592 14.8257 10.0927 15.2288 10.0927Z" fill="#EEF8FA"/>
</g>
</svg>
