<svg width="24" height="25" viewBox="0 0 24 25" fill="none" xmlns="http://www.w3.org/2000/svg">
<g id="LinkedIn">
<g id="Group 73">
<rect id="Social Media Icon" y="0.625" width="24" height="24" rx="4" fill="#3B8190"/>
<path id="LinkedIn_2" d="M6 8.23821C6 7.8534 6.13514 7.53594 6.40541 7.28582C6.67567 7.0357 7.02703 6.91064 7.45946 6.91064C7.88417 6.91064 8.2278 7.03377 8.49035 7.28005C8.76061 7.53402 8.89575 7.86494 8.89575 8.27284C8.89575 8.64225 8.76448 8.95008 8.50193 9.19636C8.23166 9.45033 7.87645 9.57731 7.43629 9.57731H7.42471C7 9.57731 6.65637 9.45033 6.39382 9.19636C6.13127 8.94239 6 8.623 6 8.23821ZM6.15058 18.3392V10.6278H8.72201V18.3392H6.15058ZM10.1467 18.3392H12.7181V14.0333C12.7181 13.7639 12.749 13.5561 12.8108 13.4099C12.9189 13.1483 13.083 12.927 13.3031 12.7461C13.5232 12.5653 13.7992 12.4749 14.1313 12.4749C14.9961 12.4749 15.4286 13.0559 15.4286 14.218V18.3392H18V13.9179C18 12.7788 17.7297 11.915 17.1892 11.3262C16.6486 10.7375 15.9344 10.4431 15.0463 10.4431C14.0502 10.4431 13.2741 10.8702 12.7181 11.7245V11.7476H12.7066L12.7181 11.7245V10.6278H10.1467C10.1622 10.8741 10.1699 11.6398 10.1699 12.9251C10.1699 14.2103 10.1622 16.015 10.1467 18.3392Z" fill="#EEF8FA"/>
</g>
</g>
</svg>
