<svg width="146" height="32" viewBox="0 0 146 32" fill="none" xmlns="http://www.w3.org/2000/svg">
<path d="M10 22.0156C15.5228 22.0156 20 17.5268 20 11.9896C20 11.362 19.9425 10.7479 19.8325 10.1523C19.2384 10.042 18.6259 9.98438 18 9.98438C12.4771 9.98438 8 14.4732 8 20.0104C8 20.638 8.05751 21.2521 8.16752 21.8477C8.76159 21.958 9.37408 22.0156 10 22.0156Z" fill="#E94248"/>
<path fill-rule="evenodd" clip-rule="evenodd" d="M8.16753 21.8477C3.51984 20.9847 0 16.8993 0 11.9896C0 6.45234 4.47715 1.96353 10 1.96353C14.8969 1.96353 18.9718 5.49254 19.8325 10.1523C19.2384 10.042 18.6259 9.98436 18 9.98436C12.4772 9.98436 8 14.4732 8 20.0104C8 20.638 8.05751 21.252 8.16753 21.8477Z" fill="#E41B23"/>
<path fill-rule="evenodd" clip-rule="evenodd" d="M9.99996 22.0156C15.5228 22.0156 20 17.5268 20 11.9895C20 11.362 19.9424 10.7479 19.8324 10.1523C24.4801 11.0153 28 15.1007 28 20.0104C28 25.5476 23.5228 30.0364 18 30.0364C13.103 30.0364 9.02821 26.5074 8.16748 21.8476C8.76154 21.9579 9.37403 22.0156 9.99996 22.0156Z" fill="#EF7B7F"/>
<path d="M47.4141 18.8398H50.918C50.8477 19.9883 50.5312 21.0078 49.9688 21.8984C49.4141 22.7891 48.6367 23.4844 47.6367 23.9844C46.6445 24.4844 45.4492 24.7344 44.0508 24.7344C42.957 24.7344 41.9766 24.5469 41.1094 24.1719C40.2422 23.7891 39.5 23.2422 38.8828 22.5312C38.2734 21.8203 37.8086 20.9609 37.4883 19.9531C37.168 18.9453 37.0078 17.8164 37.0078 16.5664V15.3828C37.0078 14.1328 37.1719 13.0039 37.5 11.9961C37.8359 10.9805 38.3125 10.1172 38.9297 9.40625C39.5547 8.69531 40.3008 8.14844 41.168 7.76562C42.0352 7.38281 43.0039 7.19141 44.0742 7.19141C45.4961 7.19141 46.6953 7.44922 47.6719 7.96484C48.6562 8.48047 49.418 9.19141 49.957 10.0977C50.5039 11.0039 50.832 12.0352 50.9414 13.1914H47.4258C47.3867 12.5039 47.25 11.9219 47.0156 11.4453C46.7812 10.9609 46.4258 10.5977 45.9492 10.3555C45.4805 10.1055 44.8555 9.98047 44.0742 9.98047C43.4883 9.98047 42.9766 10.0898 42.5391 10.3086C42.1016 10.5273 41.7344 10.8594 41.4375 11.3047C41.1406 11.75 40.918 12.3125 40.7695 12.9922C40.6289 13.6641 40.5586 14.4531 40.5586 15.3594V16.5664C40.5586 17.4492 40.625 18.2266 40.7578 18.8984C40.8906 19.5625 41.0938 20.125 41.3672 20.5859C41.6484 21.0391 42.0078 21.3828 42.4453 21.6172C42.8906 21.8438 43.4258 21.957 44.0508 21.957C44.7852 21.957 45.3906 21.8398 45.8672 21.6055C46.3438 21.3711 46.707 21.0234 46.957 20.5625C47.2148 20.1016 47.3672 19.5273 47.4141 18.8398ZM56.7773 23.0703L60.1406 11.8203H63.7617L58.6641 26.4102C58.5547 26.7305 58.4062 27.0742 58.2188 27.4414C58.0391 27.8086 57.793 28.1562 57.4805 28.4844C57.1758 28.8203 56.7891 29.0938 56.3203 29.3047C55.8594 29.5156 55.293 29.6211 54.6211 29.6211C54.3008 29.6211 54.0391 29.6016 53.8359 29.5625C53.6328 29.5234 53.3906 29.4688 53.1094 29.3984V26.9258C53.1953 26.9258 53.2852 26.9258 53.3789 26.9258C53.4727 26.9336 53.5625 26.9375 53.6484 26.9375C54.0938 26.9375 54.457 26.8867 54.7383 26.7852C55.0195 26.6836 55.2461 26.5273 55.418 26.3164C55.5898 26.1133 55.7266 25.8477 55.8281 25.5195L56.7773 23.0703ZM55.3711 11.8203L58.125 21.0078L58.6055 24.582L56.3086 24.8281L51.75 11.8203H55.3711ZM70.1836 22.0977C70.5977 22.0977 70.9648 22.0195 71.2852 21.8633C71.6055 21.6992 71.8555 21.4727 72.0352 21.1836C72.2227 20.8867 72.3203 20.5391 72.3281 20.1406H75.5039C75.4961 21.0312 75.2578 21.8242 74.7891 22.5195C74.3203 23.207 73.6914 23.75 72.9023 24.1484C72.1133 24.5391 71.2305 24.7344 70.2539 24.7344C69.2695 24.7344 68.4102 24.5703 67.6758 24.2422C66.9492 23.9141 66.3438 23.4609 65.8594 22.8828C65.375 22.2969 65.0117 21.6172 64.7695 20.8438C64.5273 20.0625 64.4062 19.2266 64.4062 18.3359V17.9961C64.4062 17.0977 64.5273 16.2617 64.7695 15.4883C65.0117 14.707 65.375 14.0273 65.8594 13.4492C66.3438 12.8633 66.9492 12.4062 67.6758 12.0781C68.4023 11.75 69.2539 11.5859 70.2305 11.5859C71.2695 11.5859 72.1797 11.7852 72.9609 12.1836C73.75 12.582 74.3672 13.1523 74.8125 13.8945C75.2656 14.6289 75.4961 15.5 75.5039 16.5078H72.3281C72.3203 16.0859 72.2305 15.7031 72.0586 15.3594C71.8945 15.0156 71.6523 14.7422 71.332 14.5391C71.0195 14.3281 70.6328 14.2227 70.1719 14.2227C69.6797 14.2227 69.2773 14.3281 68.9648 14.5391C68.6523 14.7422 68.4102 15.0234 68.2383 15.3828C68.0664 15.7344 67.9453 16.1367 67.875 16.5898C67.8125 17.0352 67.7812 17.5039 67.7812 17.9961V18.3359C67.7812 18.8281 67.8125 19.3008 67.875 19.7539C67.9375 20.207 68.0547 20.6094 68.2266 20.9609C68.4062 21.3125 68.6523 21.5898 68.9648 21.793C69.2773 21.9961 69.6836 22.0977 70.1836 22.0977ZM81.0234 6.5V24.5H77.6367V6.5H81.0234ZM89.6484 24.7344C88.6641 24.7344 87.7812 24.5781 87 24.2656C86.2188 23.9453 85.5547 23.5039 85.0078 22.9414C84.4688 22.3789 84.0547 21.7266 83.7656 20.9844C83.4766 20.2344 83.332 19.4375 83.332 18.5938V18.125C83.332 17.1641 83.4688 16.2852 83.7422 15.4883C84.0156 14.6914 84.4062 14 84.9141 13.4141C85.4297 12.8281 86.0547 12.3789 86.7891 12.0664C87.5234 11.7461 88.3516 11.5859 89.2734 11.5859C90.1719 11.5859 90.9688 11.7344 91.6641 12.0312C92.3594 12.3281 92.9414 12.75 93.4102 13.2969C93.8867 13.8438 94.2461 14.5 94.4883 15.2656C94.7305 16.0234 94.8516 16.8672 94.8516 17.7969V19.2031H84.7734V16.9531H91.5352V16.6953C91.5352 16.2266 91.4492 15.8086 91.2773 15.4414C91.1133 15.0664 90.8633 14.7695 90.5273 14.5508C90.1914 14.332 89.7617 14.2227 89.2383 14.2227C88.793 14.2227 88.4102 14.3203 88.0898 14.5156C87.7695 14.7109 87.5078 14.9844 87.3047 15.3359C87.1094 15.6875 86.9609 16.1016 86.8594 16.5781C86.7656 17.0469 86.7188 17.5625 86.7188 18.125V18.5938C86.7188 19.1016 86.7891 19.5703 86.9297 20C87.0781 20.4297 87.2852 20.8008 87.5508 21.1133C87.8242 21.4258 88.1523 21.668 88.5352 21.8398C88.9258 22.0117 89.3672 22.0977 89.8594 22.0977C90.4688 22.0977 91.0352 21.9805 91.5586 21.7461C92.0898 21.5039 92.5469 21.1406 92.9297 20.6562L94.5703 22.4375C94.3047 22.8203 93.9414 23.1875 93.4805 23.5391C93.0273 23.8906 92.4805 24.1797 91.8398 24.4062C91.1992 24.625 90.4688 24.7344 89.6484 24.7344ZM110.871 7.4375V24.5H107.355L100.5 13.0625V24.5H96.9844V7.4375H100.5L107.367 18.8867V7.4375H110.871ZM119.555 24.7344C118.57 24.7344 117.688 24.5781 116.906 24.2656C116.125 23.9453 115.461 23.5039 114.914 22.9414C114.375 22.3789 113.961 21.7266 113.672 20.9844C113.383 20.2344 113.238 19.4375 113.238 18.5938V18.125C113.238 17.1641 113.375 16.2852 113.648 15.4883C113.922 14.6914 114.312 14 114.82 13.4141C115.336 12.8281 115.961 12.3789 116.695 12.0664C117.43 11.7461 118.258 11.5859 119.18 11.5859C120.078 11.5859 120.875 11.7344 121.57 12.0312C122.266 12.3281 122.848 12.75 123.316 13.2969C123.793 13.8438 124.152 14.5 124.395 15.2656C124.637 16.0234 124.758 16.8672 124.758 17.7969V19.2031H114.68V16.9531H121.441V16.6953C121.441 16.2266 121.355 15.8086 121.184 15.4414C121.02 15.0664 120.77 14.7695 120.434 14.5508C120.098 14.332 119.668 14.2227 119.145 14.2227C118.699 14.2227 118.316 14.3203 117.996 14.5156C117.676 14.7109 117.414 14.9844 117.211 15.3359C117.016 15.6875 116.867 16.1016 116.766 16.5781C116.672 17.0469 116.625 17.5625 116.625 18.125V18.5938C116.625 19.1016 116.695 19.5703 116.836 20C116.984 20.4297 117.191 20.8008 117.457 21.1133C117.73 21.4258 118.059 21.668 118.441 21.8398C118.832 22.0117 119.273 22.0977 119.766 22.0977C120.375 22.0977 120.941 21.9805 121.465 21.7461C121.996 21.5039 122.453 21.1406 122.836 20.6562L124.477 22.4375C124.211 22.8203 123.848 23.1875 123.387 23.5391C122.934 23.8906 122.387 24.1797 121.746 24.4062C121.105 24.625 120.375 24.7344 119.555 24.7344ZM133.535 20.9961C133.535 20.7539 133.465 20.5352 133.324 20.3398C133.184 20.1445 132.922 19.9648 132.539 19.8008C132.164 19.6289 131.621 19.4727 130.91 19.332C130.27 19.1914 129.672 19.0156 129.117 18.8047C128.57 18.5859 128.094 18.3242 127.688 18.0195C127.289 17.7148 126.977 17.3555 126.75 16.9414C126.523 16.5195 126.41 16.0391 126.41 15.5C126.41 14.9688 126.523 14.4688 126.75 14C126.984 13.5312 127.316 13.1172 127.746 12.7578C128.184 12.3906 128.715 12.1055 129.34 11.9023C129.973 11.6914 130.684 11.5859 131.473 11.5859C132.574 11.5859 133.52 11.7617 134.309 12.1133C135.105 12.4648 135.715 12.9492 136.137 13.5664C136.566 14.1758 136.781 14.8711 136.781 15.6523H133.406C133.406 15.3242 133.336 15.0312 133.195 14.7734C133.062 14.5078 132.852 14.3008 132.562 14.1523C132.281 13.9961 131.914 13.918 131.461 13.918C131.086 13.918 130.762 13.9844 130.488 14.1172C130.215 14.2422 130.004 14.4141 129.855 14.6328C129.715 14.8438 129.645 15.0781 129.645 15.3359C129.645 15.5312 129.684 15.707 129.762 15.8633C129.848 16.0117 129.984 16.1484 130.172 16.2734C130.359 16.3984 130.602 16.5156 130.898 16.625C131.203 16.7266 131.578 16.8203 132.023 16.9062C132.938 17.0938 133.754 17.3398 134.473 17.6445C135.191 17.9414 135.762 18.3477 136.184 18.8633C136.605 19.3711 136.816 20.0391 136.816 20.8672C136.816 21.4297 136.691 21.9453 136.441 22.4141C136.191 22.8828 135.832 23.293 135.363 23.6445C134.895 23.9883 134.332 24.2578 133.676 24.4531C133.027 24.6406 132.297 24.7344 131.484 24.7344C130.305 24.7344 129.305 24.5234 128.484 24.1016C127.672 23.6797 127.055 23.1445 126.633 22.4961C126.219 21.8398 126.012 21.168 126.012 20.4805H129.211C129.227 20.9414 129.344 21.3125 129.562 21.5938C129.789 21.875 130.074 22.0781 130.418 22.2031C130.77 22.3281 131.148 22.3906 131.555 22.3906C131.992 22.3906 132.355 22.332 132.645 22.2148C132.934 22.0898 133.152 21.9258 133.301 21.7227C133.457 21.5117 133.535 21.2695 133.535 20.9961ZM145.219 11.8203V14.2109H137.836V11.8203H145.219ZM139.664 8.69141H143.039V20.6797C143.039 21.0469 143.086 21.3281 143.18 21.5234C143.281 21.7188 143.43 21.8555 143.625 21.9336C143.82 22.0039 144.066 22.0391 144.363 22.0391C144.574 22.0391 144.762 22.0312 144.926 22.0156C145.098 21.9922 145.242 21.9688 145.359 21.9453L145.371 24.4297C145.082 24.5234 144.77 24.5977 144.434 24.6523C144.098 24.707 143.727 24.7344 143.32 24.7344C142.578 24.7344 141.93 24.6133 141.375 24.3711C140.828 24.1211 140.406 23.7227 140.109 23.1758C139.812 22.6289 139.664 21.9102 139.664 21.0195V8.69141Z" fill="black"/>
</svg>
