<svg width="21" height="20" viewBox="0 0 21 20" fill="none" xmlns="http://www.w3.org/2000/svg">
<g id="smallStar">
<path id="Vector" d="M18.8039 8.97268L15.2882 12.0063L16.3593 16.543C16.4184 16.7893 16.4032 17.0475 16.3156 17.2852C16.228 17.5228 16.0719 17.7291 15.8671 17.8781C15.6623 18.0271 15.4179 18.112 15.1648 18.1222C14.9118 18.1323 14.6614 18.0673 14.4453 17.9352L10.5 15.5071L6.5523 17.9352C6.33622 18.0665 6.08613 18.131 5.8335 18.1204C5.58087 18.1099 5.337 18.0249 5.13261 17.876C4.92822 17.7272 4.77243 17.5212 4.68488 17.284C4.59732 17.0467 4.58191 16.7889 4.64058 16.543L5.71558 12.0063L2.19995 8.97268C2.00878 8.80746 1.87052 8.58957 1.80244 8.34623C1.73436 8.1029 1.73947 7.8449 1.81715 7.60445C1.89483 7.36401 2.04162 7.15178 2.23919 6.99426C2.43677 6.83675 2.67637 6.74093 2.92808 6.71878L7.53745 6.3469L9.31558 2.04378C9.41182 1.80926 9.57563 1.60866 9.78618 1.46748C9.99673 1.3263 10.2445 1.25092 10.498 1.25092C10.7515 1.25092 10.9993 1.3263 11.2098 1.46748C11.4204 1.60866 11.5842 1.80926 11.6804 2.04378L13.4578 6.3469L18.0671 6.71878C18.3193 6.74011 18.5596 6.83539 18.7579 6.99269C18.9562 7.14998 19.1037 7.3623 19.1819 7.60304C19.26 7.84377 19.2654 8.10222 19.1973 8.346C19.1292 8.58978 18.9907 8.80805 18.7992 8.97346L18.8039 8.97268Z" fill="white"/>
</g>
</svg>
