<svg width="24" height="25" viewBox="0 0 24 25" fill="none" xmlns="http://www.w3.org/2000/svg">
<g id="Twitter">
<rect id="Social Media Icon" y="0.625" width="24" height="24" rx="4" fill="#3B8190"/>
<path id="Twitter_2" d="M14.018 7.75924V7.75708H14.5807L14.7863 7.79814C14.9234 7.8248 15.0478 7.85973 15.1596 7.90296C15.2714 7.94618 15.3796 7.99661 15.4842 8.05423C15.5888 8.11186 15.6837 8.17058 15.7688 8.23037C15.8532 8.28944 15.929 8.35211 15.996 8.41838C16.0624 8.48538 16.1659 8.50267 16.3066 8.47025C16.4472 8.43783 16.5987 8.39281 16.761 8.33518C16.9234 8.27755 17.0839 8.21272 17.2426 8.14068C17.4013 8.06864 17.4979 8.0229 17.5326 8.00345C17.5665 7.98328 17.5845 7.97248 17.5867 7.97103L17.5888 7.96779L17.5996 7.96239L17.6105 7.95698L17.6213 7.95158L17.6321 7.94618L17.6343 7.94294L17.6375 7.94078L17.6408 7.93861L17.6429 7.93537L17.6537 7.93213L17.6646 7.92997L17.6624 7.94618L17.6592 7.96239L17.6537 7.97859L17.6483 7.9948L17.6429 8.00561L17.6375 8.01641L17.6321 8.03262C17.6285 8.04343 17.6249 8.05783 17.6213 8.07585C17.6177 8.09386 17.5834 8.16589 17.5185 8.29196C17.4536 8.41803 17.3724 8.54589 17.275 8.67556C17.1776 8.80522 17.0904 8.90319 17.0132 8.96947C16.9353 9.03646 16.8837 9.08328 16.8584 9.10994C16.8332 9.13731 16.8025 9.16252 16.7665 9.18558L16.7124 9.22124L16.7015 9.22664L16.6907 9.23205L16.6886 9.23529L16.6853 9.23745L16.6821 9.23961L16.6799 9.24285L16.6691 9.24825L16.6583 9.25366L16.6561 9.2569L16.6528 9.25906L16.6496 9.26122L16.6474 9.26446L16.6453 9.2677L16.642 9.26986L16.6388 9.27203L16.6366 9.27527H16.6907L16.9937 9.21043C17.1957 9.16721 17.3886 9.11499 17.5726 9.05375L17.8647 8.9565L17.8972 8.9457L17.9134 8.94029L17.9243 8.93489L17.9351 8.92949L17.9459 8.92409L17.9567 8.91868L17.9784 8.91544L18 8.91328V8.93489L17.9946 8.93705L17.9892 8.94029L17.987 8.94354L17.9838 8.9457L17.9805 8.94786L17.9784 8.9511L17.9762 8.95434L17.9729 8.9565L17.9697 8.95866L17.9675 8.96191L17.9654 8.96515L17.9621 8.96731L17.9567 8.97811L17.9513 8.98892L17.9481 8.99108C17.9466 8.99324 17.9008 9.05447 17.8106 9.17478C17.7205 9.2958 17.6718 9.35702 17.6646 9.35847C17.6574 9.36063 17.6472 9.37144 17.6343 9.39089C17.622 9.41105 17.5455 9.49138 17.4049 9.63185C17.2642 9.77233 17.1264 9.8973 16.9915 10.0068C16.8559 10.117 16.7874 10.2525 16.7859 10.4131C16.7838 10.573 16.7755 10.7538 16.761 10.9555C16.7466 11.1572 16.7196 11.3752 16.6799 11.6093C16.6402 11.8434 16.5789 12.1081 16.4959 12.4035C16.413 12.6988 16.312 12.987 16.193 13.2679C16.0739 13.5489 15.9495 13.801 15.8197 14.0243C15.6898 14.2477 15.5708 14.4367 15.4626 14.5916C15.3544 14.7465 15.2444 14.8924 15.1326 15.0293C15.0207 15.1661 14.8794 15.3203 14.7084 15.4917C14.5367 15.6625 14.4429 15.7561 14.4271 15.7727C14.4105 15.7885 14.3398 15.8476 14.215 15.9499C14.0909 16.0529 13.9574 16.1559 13.8146 16.2589C13.6725 16.3612 13.5419 16.4466 13.4229 16.515C13.3039 16.5835 13.1603 16.6616 12.9922 16.7495C12.8249 16.8381 12.6438 16.9202 12.4491 16.9959C12.2543 17.0715 12.0487 17.1417 11.8323 17.2066C11.6159 17.2714 11.4067 17.3218 11.2047 17.3579C11.0027 17.3939 10.7737 17.4245 10.5176 17.4497L10.1335 17.4875V17.4929H9.43012V17.4875L9.33814 17.4821C9.27683 17.4785 9.22633 17.4749 9.18665 17.4713C9.14699 17.4677 8.99729 17.4479 8.7376 17.4119C8.47791 17.3759 8.27412 17.3398 8.12624 17.3038C7.97837 17.2678 7.75834 17.1994 7.46619 17.0985C7.17403 16.9977 6.92408 16.8957 6.71632 16.7927C6.50929 16.6904 6.37944 16.6256 6.32678 16.5982C6.27484 16.5716 6.21641 16.5384 6.15149 16.4988L6.0541 16.4394L6.05195 16.4361L6.04869 16.434L6.04545 16.4318L6.04328 16.4286L6.03246 16.4232L6.02164 16.4178L6.01949 16.4145L6.01623 16.4124L6.01298 16.4102L6.01082 16.407L6.00867 16.4037L6.00541 16.4016H6V16.38L6.01082 16.3821L6.02164 16.3854L6.07033 16.3908C6.1028 16.3944 6.19117 16.3998 6.33544 16.407C6.47972 16.4142 6.633 16.4142 6.79531 16.407C6.95762 16.3998 7.12354 16.3836 7.29306 16.3583C7.46258 16.3331 7.66276 16.2899 7.8936 16.2287C8.12444 16.1674 8.33653 16.0947 8.52986 16.0104C8.72246 15.9254 8.85952 15.862 8.94104 15.8202C9.02183 15.7792 9.14518 15.7028 9.31109 15.5911L9.55996 15.4237L9.56213 15.4204L9.56537 15.4183L9.56863 15.4161L9.57078 15.4129L9.57295 15.4096L9.57619 15.4074L9.57945 15.4053L9.58161 15.402L9.59243 15.3988L9.60325 15.3966L9.60541 15.3858L9.60866 15.375L9.61191 15.3729L9.61407 15.3696L9.5275 15.3642C9.4698 15.3606 9.41389 15.357 9.35978 15.3534C9.30568 15.3498 9.22092 15.3336 9.1055 15.3048C8.99009 15.276 8.86565 15.2328 8.73219 15.1751C8.59874 15.1175 8.46889 15.0491 8.34265 14.9698C8.21642 14.8906 8.12516 14.8247 8.06889 14.7721C8.01335 14.7202 7.94121 14.6467 7.85248 14.5516C7.76448 14.4558 7.68801 14.3575 7.62308 14.2567C7.55816 14.1558 7.49613 14.0394 7.43698 13.9076L7.34716 13.711L7.34175 13.6948L7.33634 13.6786L7.33309 13.6677L7.33093 13.6569L7.34716 13.6591L7.36339 13.6623L7.48242 13.6786C7.56177 13.6894 7.68621 13.693 7.85573 13.6894C8.02525 13.6858 8.14247 13.6786 8.20739 13.6677C8.27232 13.6569 8.312 13.6497 8.32642 13.6461L8.34806 13.6407L8.37511 13.6353L8.40216 13.6299L8.40433 13.6267L8.40757 13.6245L8.41083 13.6224L8.41298 13.6191L8.39134 13.6137L8.3697 13.6083L8.34806 13.6029L8.32642 13.5975L8.30478 13.5921C8.29036 13.5885 8.26511 13.5813 8.22904 13.5705C8.19297 13.5597 8.09559 13.5201 7.93688 13.4516C7.77819 13.3832 7.65194 13.3166 7.55816 13.2517C7.46415 13.1867 7.3745 13.1156 7.28981 13.0389C7.20541 12.9611 7.11272 12.8609 7.01172 12.7385C6.91073 12.616 6.82057 12.4737 6.74121 12.3116C6.66186 12.1496 6.60235 11.9947 6.56267 11.847C6.52315 11.7002 6.49708 11.5501 6.48477 11.3986L6.46528 11.1717L6.4761 11.1738L6.48693 11.1771L6.49775 11.1825L6.50857 11.1879L6.51939 11.1933L6.53021 11.1987L6.69793 11.2743C6.80975 11.3247 6.94861 11.368 7.11452 11.404C7.28044 11.44 7.37962 11.4598 7.41208 11.4634L7.46078 11.4688H7.55816L7.55601 11.4656L7.55275 11.4634L7.5495 11.4612L7.54734 11.458L7.54519 11.4548L7.54193 11.4526L7.53868 11.4504L7.53652 11.4472L7.5257 11.4418L7.51488 11.4364L7.51272 11.4331L7.50947 11.431L7.50622 11.4288L7.50406 11.4256L7.49324 11.4202L7.48242 11.4148L7.48026 11.4115C7.4781 11.4101 7.44708 11.387 7.3872 11.3424C7.32804 11.297 7.26601 11.2383 7.20108 11.1662C7.13616 11.0942 7.07124 11.0186 7.00631 10.9393C6.94127 10.8599 6.88334 10.7749 6.83318 10.6854C6.78269 10.5954 6.72931 10.4808 6.67304 10.3418C6.6175 10.2035 6.5753 10.0641 6.54644 9.9236C6.51759 9.78313 6.50136 9.64446 6.49775 9.50759C6.49414 9.37071 6.49775 9.25366 6.50857 9.15641C6.51939 9.05916 6.54103 8.94929 6.57349 8.82683C6.60595 8.70438 6.65285 8.57471 6.71416 8.43783L6.80613 8.23253L6.81154 8.21632L6.81695 8.20011L6.82021 8.19795L6.82236 8.19471L6.82453 8.19147L6.82777 8.1893L6.83103 8.19147L6.83318 8.19471L6.83535 8.19795L6.83859 8.20011L6.84185 8.20227L6.844 8.20551L6.84617 8.20875L6.84941 8.21092L6.85482 8.22172L6.86023 8.23253L6.86349 8.23469L6.86564 8.23793L7.01172 8.40001C7.10911 8.50807 7.22453 8.62874 7.35798 8.762C7.49144 8.89527 7.56538 8.96442 7.5798 8.96947C7.59424 8.97523 7.61226 8.99179 7.6339 9.01917C7.65555 9.04583 7.72769 9.10959 7.85032 9.21043C7.97296 9.31128 8.13346 9.42835 8.33183 9.56162C8.53021 9.69488 8.75023 9.82635 8.99188 9.95602C9.23355 10.0857 9.49324 10.2027 9.77096 10.3072C10.0487 10.4117 10.2435 10.4801 10.3553 10.5125C10.4671 10.5449 10.6583 10.5863 10.9288 10.6368C11.1993 10.6872 11.4031 10.7196 11.5401 10.734C11.6772 10.7484 11.771 10.7567 11.8215 10.7589L11.8972 10.761L11.8951 10.7448L11.8918 10.7286L11.8702 10.5936C11.8557 10.5035 11.8485 10.3774 11.8485 10.2154C11.8485 10.0533 11.8611 9.9038 11.8864 9.76692C11.9116 9.63005 11.9495 9.49138 12 9.35091C12.0505 9.21043 12.0999 9.09769 12.1482 9.01269C12.1973 8.92841 12.2615 8.83224 12.3408 8.72418C12.4202 8.61613 12.523 8.50447 12.6492 8.38921C12.7755 8.27394 12.9197 8.17129 13.0821 8.08125C13.2444 7.99121 13.3941 7.92276 13.5311 7.87594C13.6682 7.82912 13.7836 7.7985 13.8774 7.78409C13.9711 7.76969 14.018 7.7614 14.018 7.75924V7.75924Z" fill="#EEF8FA"/>
</g>
</svg>
