<svg width="24" height="24" viewBox="0 0 24 24" fill="none" xmlns="http://www.w3.org/2000/svg">
<g id="User">
<path id="Vector" d="M21.5212 20.2239C21.4554 20.3379 21.3607 20.4326 21.2466 20.4984C21.1326 20.5643 21.0032 20.5989 20.8715 20.5989H2.87152C2.73993 20.5987 2.61069 20.564 2.49678 20.4981C2.38288 20.4322 2.28831 20.3375 2.22257 20.2235C2.15684 20.1095 2.12225 19.9803 2.12228 19.8487C2.12232 19.7171 2.15697 19.5878 2.22277 19.4739C3.65058 17.0054 5.85089 15.2354 8.4187 14.3964C7.14855 13.6402 6.16171 12.4881 5.60975 11.1168C5.05779 9.74553 4.97122 8.23099 5.36333 6.80576C5.75545 5.38053 6.60457 4.12342 7.78029 3.22748C8.95601 2.33154 10.3933 1.84631 11.8715 1.84631C13.3497 1.84631 14.787 2.33154 15.9627 3.22748C17.1385 4.12342 17.9876 5.38053 18.3797 6.80576C18.7718 8.23099 18.6852 9.74553 18.1333 11.1168C17.5813 12.4881 16.5945 13.6402 15.3243 14.3964C17.8921 15.2354 20.0925 17.0054 21.5203 19.4739C21.5862 19.5878 21.6211 19.7171 21.6212 19.8487C21.6214 19.9804 21.5869 20.1098 21.5212 20.2239Z" fill="#565656"/>
</g>
</svg>
