<svg width="24" height="25" viewBox="0 0 24 25" fill="none" xmlns="http://www.w3.org/2000/svg">
<g id="YouTube">
<g id="Group 73">
<rect id="Social Media Icon" y="0.625" width="24" height="24" rx="4" fill="#3B8190"/>
<path id="YouTube_2" d="M12.2924 17.2783L9.5843 17.2277C8.70747 17.21 7.82846 17.2452 6.96882 17.0625C5.66111 16.7895 5.56847 15.4509 5.47152 14.3281C5.33795 12.7495 5.38966 11.1423 5.64173 9.57692C5.78404 8.69858 6.34406 8.17447 7.21011 8.11743C10.1337 7.91045 13.0767 7.93498 15.9938 8.03154C16.3019 8.0404 16.6121 8.08878 16.9158 8.14385C18.4154 8.41247 18.4519 9.9294 18.5492 11.2064C18.6461 12.4965 18.6052 13.7933 18.4199 15.0747C18.2712 16.1356 17.9868 17.0253 16.7866 17.1112C15.2827 17.2235 13.8134 17.3139 12.3053 17.2851C12.3054 17.2783 12.2967 17.2783 12.2924 17.2783ZM10.7003 14.5923C11.8336 13.9274 12.9452 13.2735 14.072 12.613C12.9366 11.9481 11.8271 11.2942 10.7003 10.6337V14.5923Z" fill="#EEF8FA"/>
</g>
</g>
</svg>
